<svg id="Layer_1" data-name="Layer 1" xmlns="http://www.w3.org/2000/svg" viewBox="0 0 1242 150"><defs><style>.cls-1{fill:#4d4d4d;}.cls-1,.cls-8{stroke:#fff;stroke-miterlimit:10;}.cls-2{font-size:48px;font-family:Noteworthy-Light, Noteworthy;}.cls-14,.cls-2{fill:#fff;}.cls-3{letter-spacing:-0.06em;}.cls-4{letter-spacing:0em;}.cls-5{letter-spacing:-0.01em;}.cls-6{letter-spacing:0.01em;}.cls-7{letter-spacing:-0.04em;}.cls-8{fill:none;stroke-width:4px;}.cls-9{fill:#a90533;}.cls-10{fill:#f1cf35;}.cls-11{fill:#ffd100;}.cls-12{fill:#a32035;}.cls-13{fill:#001e61;}.cls-15{fill:#f3cf1e;}</style></defs><title>follow-us-header</title><rect class="cls-1" x="-7.14" y="-6.82" width="1256.28" height="163.65"/><text class="cls-2" transform="translate(825.61 47.13)">chec<tspan class="cls-3" x="83.58" y="0">k</tspan><tspan class="cls-4" x="103.5" y="0">o</tspan><tspan class="cls-5" x="125.52" y="0">u</tspan><tspan x="144.9" y="0">t </tspan><tspan class="cls-6" x="173.88" y="0">m</tspan><tspan x="204.9" y="0">o</tspan><tspan class="cls-7" x="226.92" y="0">r</tspan><tspan x="241.31" y="0">e</tspan></text><path class="cls-8" d="M1092,39.71c20.65-1.14,31.72-.62,38.19.22,2.11.28,8,1.14,11.57-.67a5,5,0,0,0,2.7-3.38c2.64-8.54,2.31-11.69,2.31-11.69a99.25,99.25,0,0,1,0-18.22"/><line class="cls-8" x1="1147.34" y1="5.97" x2="1139.24" y2="21.71"/><line class="cls-8" x1="1154.29" y1="18.56" x2="1147.34" y2="5.97"/><path class="cls-9" d="M20,102.83q2.47,1.58,5.09,3.2l1,.63-.56,1q-1.35,2.54-2.69,5.07,4-1.05,8.11-1.9c-.2-.9-.39-1.8-.57-2.71l0-.18h0l-.58-1.55,5.61-4c-.56-.89-1.11-1.79-1.65-2.72Q27,101.07,20,102.83Z"/><path class="cls-9" d="M110.17,106.15l-.58,1.56h0l-.09.46c-.2,1-.41,2-.62,3,2.95.62,5.91,1.31,8.92,2.07l-3.36-5-.69-1.05,1.05-.71c2-1.35,4-2.69,5.83-4-4.84-1.16-9.55-2.16-14.16-3-.57,1-1.16,2-1.75,2.94Z"/><path class="cls-10" d="M126.75,101.24l-2.71-.68q-8.36-2.1-16.26-3.57c-.21.4-.43.79-.65,1.19s-.44.8-.67,1.19c4.61.85,9.32,1.85,14.16,3-1.87,1.32-3.82,2.66-5.83,4l-1.05.71.69,1.05,3.36,5c-3-.76-6-1.45-8.92-2.07l-.27,1.27c-.09.42-.19.84-.28,1.26,4,.85,8,1.81,12.12,2.92l3.4.92-1.9-2.86q-2.28-3.42-4.55-6.84c2.48-1.69,4.87-3.35,7.12-5Z"/><path class="cls-10" d="M30.94,110.88q-4.08.86-8.11,1.9,1.34-2.53,2.69-5.07l.56-1-1-.63q-2.61-1.62-5.09-3.2,7-1.76,13.72-3L33,98.59c-.22-.39-.43-.79-.64-1.19-5.2,1-10.51,2.24-16,3.66l-2.83.74L16,103.38c2.09,1.36,4.3,2.77,6.58,4.19Q20.8,110.9,19,114.23l-1.4,2.65,3-.82q5.41-1.5,10.88-2.64c-.09-.42-.19-.84-.28-1.26Z"/><path class="cls-11" d="M70,132.82a93.79,93.79,0,0,1-18-13.23l-2.31.37A91.59,91.59,0,0,0,70,134.84,91.81,91.81,0,0,0,90.22,120l-2.3-.37A94.37,94.37,0,0,1,70,132.82Z"/><path class="cls-11" d="M70,126.77a87.93,87.93,0,0,1-11.19-8c-.8.08-1.6.16-2.4.26A90.33,90.33,0,0,0,70,128.79,89.86,89.86,0,0,0,83.54,119c-.8-.09-1.6-.18-2.4-.25A89.46,89.46,0,0,1,70,126.77Z"/><path class="cls-11" d="M41.05,98.48c-.25-.4-.49-.8-.73-1.2s-.46-.79-.69-1.2a72.87,72.87,0,0,1-9.54-36.51V20h79.74V59.57a72.88,72.88,0,0,1-9.34,36.17c-.23.41-.46.81-.7,1.21s-.47.8-.71,1.19c-1,1.63-2,3.18-3.08,4.67l1.89.38c1.06-1.52,2.09-3.1,3.08-4.76.24-.39.47-.79.7-1.19s.46-.8.68-1.2a74.67,74.67,0,0,0,9.26-36.47V18.25H28.31V59.57a74.55,74.55,0,0,0,9.46,36.82c.23.41.45.81.69,1.21s.46.79.7,1.18c.92,1.53,1.88,3,2.87,4.4l1.89-.38C42.93,101.42,42,100,41.05,98.48Z"/><path class="cls-11" d="M33.68,99.78c.54.93,1.09,1.83,1.65,2.72l0,0,1.35-.55,1.53,2.1.25-.06c-1-1.46-2-3-2.89-4.56l-.69-1.18L34.26,97a77.17,77.17,0,0,1-9.5-37.46V14.84h90.4V59.57a77.26,77.26,0,0,1-9.28,37.07l-.66,1.2c-.23.4-.46.79-.68,1.19-1,1.71-2.05,3.37-3.13,5h0l1.72-2.35,1.35.55.19.12c.59-1,1.18-1.93,1.75-2.94.23-.39.45-.79.67-1.19s.44-.79.65-1.19a79.37,79.37,0,0,0,9.16-37.42V13.13H23V59.57A79.17,79.17,0,0,0,32.37,97.4c.21.4.42.8.64,1.19Z"/><path class="cls-12" d="M105.22,97.84l.66-1.2a77.26,77.26,0,0,0,9.28-37.07V14.84H24.76V59.57A77.17,77.17,0,0,0,34.26,97l.66,1.2.69,1.18c.93,1.58,1.9,3.1,2.89,4.56.48.7,1,1.39,1.46,2.07,1.19-.28,2.38-.53,3.58-.77-.51-.68-1-1.38-1.51-2.09-1-1.41-2-2.87-2.87-4.4-.24-.39-.47-.78-.7-1.18s-.46-.8-.69-1.21a74.55,74.55,0,0,1-9.46-36.82V18.25h83.3V59.57A74.67,74.67,0,0,1,102.35,96c-.22.4-.45.8-.68,1.2s-.46.8-.7,1.19c-1,1.66-2,3.24-3.08,4.76-.5.71-1,1.41-1.52,2.09,1.2.24,2.39.49,3.59.77.49-.68,1-1.37,1.45-2.07,1.08-1.58,2.12-3.24,3.13-5C104.76,98.63,105,98.24,105.22,97.84Z"/><path class="cls-13" d="M75.69,49.9c0-3.48-3.55-5.24-8.87-5.24H62.59V55.14h4.23C72,55.14,75.69,52.73,75.69,49.9ZM66,54.33a3.64,3.64,0,0,0-2.41-3.12V49.39c2.24.4,4.12,1.18,4.12,2.63S66,54.33,66,54.33Zm5-.76V51c0-1.25-1.41-1.6-1.41-1.6h5.11a4.73,4.73,0,0,1,0,.54C74.72,51.29,73.35,52.76,71,53.57Z"/><path class="cls-13" d="M81.14,118.76a117.73,117.73,0,0,0-22.37,0,87.93,87.93,0,0,0,11.19,8A89.46,89.46,0,0,0,81.14,118.76Z"/><path class="cls-13" d="M99.79,97c.24-.4.47-.8.7-1.21a72.88,72.88,0,0,0,9.34-36.17V20H30.09V59.57a72.87,72.87,0,0,0,9.54,36.51c.23.41.46.8.69,1.2s.48.8.73,1.2c.92,1.49,1.88,2.94,2.87,4.32a134,134,0,0,1,52.08,0c1.06-1.49,2.09-3,3.08-4.67C99.32,97.75,99.56,97.35,99.79,97ZM54.5,27.39c1,1.44-1.09,3.17-1.09,3.17a3.27,3.27,0,0,0,2.45,1.8c2.2.36,4.51.22,5-3.68,0,0,1.49,3.94,5,3.08a4.89,4.89,0,0,0,3.46-3.16C67,28.34,65.28,27,65.28,25.45h3.26A5.29,5.29,0,0,1,70,22.51a5.36,5.36,0,0,1,1.5,2.94H74.8c0,1.58-1.71,2.89-4,3.15a4.93,4.93,0,0,0,3.47,3.16c3.45.86,5-3.08,5-3.08.44,3.9,2.75,4,5,3.68a3.27,3.27,0,0,0,2.45-1.8s-2.09-1.73-1.1-3.17c2.91,2.64,5.18-2.79,7.93-.08,0,0-3.26,1.65-3.93,3.17s-.95,2.06-.95,2.06l.54,1.9-2.1.89L85.76,38A42.86,42.86,0,0,0,70,35.36,42.86,42.86,0,0,0,54.32,38L53,35.33l-2.09-.89.54-1.9s-.29-.53-1-2.06-3.92-3.17-3.92-3.17C49.33,24.6,51.6,30,54.5,27.39ZM69.57,73.58S71,73.24,71,72V60l4.94,4.42V72H85.3c3.93,0,5.24-2.18,5.24-2.18s2.28,3.75-4.37,3.75Zm7.35,8.17a4.93,4.93,0,0,0-2.68-1.2l-.35-1A5,5,0,0,1,76.92,81.75ZM59,73.9c-6,0-10.21-1.93-10.21-4.07,0-2.33,2.89-3,2.89-3-.93,3.34,2.85,5.57,7.32,5.57,3.94,0,6-1.93,6-4.77,0-5.52-15.8-5.29-15.8-12.29,0-3.3,3.21-5.16,6.56-5.91v1.78c-1.42.66-2.44,1.72-2.44,3,0,5,16.29,4.82,16.29,12.39C69.61,70.17,66.49,73.9,59,73.9Zm7.56,5.63a5.44,5.44,0,0,0-2.29,2.37H63A5.82,5.82,0,0,1,66.56,79.53Zm-2.37-11h-9s1.52-.77,1.52-1.67V62.92a33.07,33.07,0,0,1,5.86,2.6v1.34C62.59,67.76,64.19,68.53,64.19,68.53ZM54.34,41c0-2.12,7-3.83,15.7-3.83s15.7,1.71,15.7,3.83a1.11,1.11,0,0,1-.11.46c-3.34-1.7-9.08-2.83-15.59-2.83s-12.25,1.13-15.59,2.83A1.11,1.11,0,0,1,54.34,41ZM86.79,69.46a12,12,0,0,1-6.69-2.59L70,57.79a5.59,5.59,0,0,0-3.88-1.17H62.59v2.29c-2.14-.83-4.29-1.51-5.86-2.26V44.81c0-.77-1.69-1.68-1.69-1.68H67.76c10.82,0,14.3,3.61,14.3,6.28,0,5.55-10,6.28-10,6.28a11.35,11.35,0,0,1,6.1,2.8l9.41,8.57a6.93,6.93,0,0,0,3.58,1.39S89.94,69.46,86.79,69.46Zm.31-29.7.33-.67a26.3,26.3,0,0,1,7.85,15.5A25.61,25.61,0,0,0,87.1,39.76Zm-28.41,47A30.09,30.09,0,0,1,42.32,72.4,29.69,29.69,0,0,0,58.81,85.75C58.76,86.07,58.72,86.4,58.69,86.73Zm.85-3.39A26.79,26.79,0,0,1,40.22,57.91,26.34,26.34,0,0,1,51.39,36.49l.85,1.77A25.54,25.54,0,0,0,41.89,58.7,26,26,0,0,0,59.66,83.09ZM62,91.92a4.75,4.75,0,0,1-1.1-3.51,4.62,4.62,0,0,0,1.44,2.49Zm6,4.28A4.62,4.62,0,0,0,70.16,96a5.41,5.41,0,0,0,.78-.33l.47.32.44.3A5.27,5.27,0,0,1,68,96.2ZM78,92.07a4.58,4.58,0,0,0,.35-2.82l.9-.63A4.8,4.8,0,0,1,78,92.07Zm-1.73-2.56,1.2,3.39c-.16.2-.33.4-.5.58a8.68,8.68,0,0,1-1.44,1.26A9.38,9.38,0,0,1,73,96l-1.81-1.29L70,93.83l-1.21.87L67.05,96a9.35,9.35,0,0,1-3.81-2.4c-.2-.22-.4-.44-.58-.67l1.2-3.39-3-2.06a8.62,8.62,0,0,1,1.67-5l3.73,0,1.11-3.42A9.59,9.59,0,0,1,70,78.72a9.7,9.7,0,0,1,2.71.39l1.11,3.42,3.72,0a8.56,8.56,0,0,1,1.68,5Zm5.13-3.18A11.76,11.76,0,0,0,81,84.64,28.79,28.79,0,0,0,98.36,58.47,28.35,28.35,0,0,0,88.29,36.88l.45-.19A28.86,28.86,0,0,1,99.86,59.35,29.3,29.3,0,0,1,81.35,86.33Z"/><polygon class="cls-14" points="67.34 88.87 69.28 86.39 72.1 85.39 68.47 85.39 67.34 88.87"/><path class="cls-14" d="M73.86,82.53l-1.11-3.42A9.7,9.7,0,0,0,70,78.72a9.59,9.59,0,0,0-2.71.39l-1.11,3.42-3.73,0a8.62,8.62,0,0,0-1.67,5l3,2.06-1.2,3.39c.18.23.38.45.58.67A9.35,9.35,0,0,0,67.05,96l1.78-1.27L70,93.83l1.18.85L73,96a9.38,9.38,0,0,0,2.45-1.23,8.68,8.68,0,0,0,1.44-1.26c.17-.18.34-.38.5-.58l-1.2-3.39,3-2.06a8.56,8.56,0,0,0-1.68-5Zm-6.18-2.9a8.86,8.86,0,0,1,4.72,0l.81,2.49L70,80.07l-3.17,2.05Zm-4,9.16-2.21-1.5A8,8,0,0,1,62.9,83l2.71,0-3,2.26ZM68,94.71l-.9.65a8.48,8.48,0,0,1-1.3-.59,8.93,8.93,0,0,1-1.73-1.24,10.59,10.59,0,0,1-.79-.85l.87-2.46,1.25,3.26.06.18,3.82.14ZM70,93.28l-.48-2.19-2.84-2-2.31.23,2-1.12L67.51,85l-1-2,1.73,1.5h3.5L73.52,83l-1,2,1.08,3.2,2,1.12-2.31-.23-2.84,2Zm6.77-.6a6.66,6.66,0,0,1-.72.78,8.41,8.41,0,0,1-1.69,1.25,9.52,9.52,0,0,1-1.41.65l-.93-.67-1.24-.89,3.81-.14.09-.24L76,90.22Zm-.38-3.89,1-3.53-3-2.26,2.71,0a8.08,8.08,0,0,1,1.46,4.33Z"/><path class="cls-12" d="M64.27,81.9a5.44,5.44,0,0,1,2.29-2.37A5.82,5.82,0,0,0,63,81.9Z"/><path class="cls-12" d="M88.74,36.69l-.45.19A28.35,28.35,0,0,1,98.36,58.47,28.79,28.79,0,0,1,81,84.64a11.76,11.76,0,0,1,.34,1.69,29.3,29.3,0,0,0,18.51-27A28.86,28.86,0,0,0,88.74,36.69Z"/><path class="cls-12" d="M42.32,72.4A30.09,30.09,0,0,0,58.69,86.73c0-.33.07-.66.12-1A29.69,29.69,0,0,1,42.32,72.4Z"/><path class="cls-12" d="M74.68,49.36H69.57S71,49.71,71,51v2.61c2.37-.81,3.74-2.28,3.74-3.67A4.73,4.73,0,0,0,74.68,49.36Z"/><path class="cls-12" d="M90.54,69.83S89.23,72,85.3,72H75.92V64.4L71,60V72c0,1.26-1.41,1.6-1.41,1.6h16.6C92.82,73.58,90.54,69.83,90.54,69.83Z"/><path class="cls-12" d="M63.56,49.39v1.82A3.64,3.64,0,0,1,66,54.33s1.71-.81,1.71-2.31S65.8,49.79,63.56,49.39Z"/><path class="cls-12" d="M69.61,66.64c0-7.57-16.29-7.41-16.29-12.39,0-1.3,1-2.36,2.44-3V49.45c-3.35.75-6.56,2.61-6.56,5.91,0,7,15.8,6.77,15.8,12.29,0,2.84-2.06,4.77-6,4.77-4.47,0-8.25-2.23-7.32-5.57,0,0-2.89.65-2.89,3C48.79,72,53,73.9,59,73.9,66.49,73.9,69.61,70.17,69.61,66.64Z"/><path class="cls-12" d="M60.9,88.41A4.75,4.75,0,0,0,62,91.92l.34-1A4.62,4.62,0,0,1,60.9,88.41Z"/><path class="cls-12" d="M70.94,95.65a5.41,5.41,0,0,1-.78.33A4.62,4.62,0,0,1,68,96.2a5.27,5.27,0,0,0,3.81.07l-.44-.3Z"/><path class="cls-12" d="M78.3,89.25A4.58,4.58,0,0,1,78,92.07a4.8,4.8,0,0,0,1.25-3.45Z"/><path class="cls-12" d="M74.24,80.55a4.93,4.93,0,0,1,2.68,1.2,5,5,0,0,0-3-2.22Z"/><path class="cls-12" d="M75.67,89.34l-2-1.12L72.57,85l1-2-1.73,1.5h-3.5L66.56,83l1,2-1.09,3.2-2,1.12,2.31-.23,2.84,2L70,93.28l.48-2.19,2.84-2Zm-6.39-3-1.93,2.48,1.12-3.48H72.1Z"/><path class="cls-11" d="M87.43,39.09l-.33.67a25.61,25.61,0,0,1,8.18,14.83A26.3,26.3,0,0,0,87.43,39.09Z"/><path class="cls-11" d="M41.89,58.7A25.54,25.54,0,0,1,52.24,38.26l-.85-1.77A26.34,26.34,0,0,0,40.22,57.91,26.79,26.79,0,0,0,59.54,83.34l.12-.25A26,26,0,0,1,41.89,58.7Z"/><path class="cls-11" d="M87.62,67.06l-9.41-8.57a11.35,11.35,0,0,0-6.1-2.8s10-.73,10-6.28c0-2.67-3.48-6.28-14.3-6.28H55s1.69.91,1.69,1.68V56.65c1.57.75,3.72,1.43,5.86,2.26V56.62h3.49A5.59,5.59,0,0,1,70,57.79L80.1,66.87a12,12,0,0,0,6.69,2.59c3.15,0,4.41-1,4.41-1A6.93,6.93,0,0,1,87.62,67.06ZM66.82,55.14H62.59V44.66h4.23c5.32,0,8.87,1.76,8.87,5.24C75.69,52.73,72,55.14,66.82,55.14Z"/><path class="cls-11" d="M56.73,62.92v3.94c0,.9-1.52,1.67-1.52,1.67h9s-1.6-.77-1.6-1.67V65.52A33.07,33.07,0,0,0,56.73,62.92Z"/><path class="cls-11" d="M50.5,30.48c.67,1.53,1,2.06,1,2.06l-.54,1.9,2.09.89L54.32,38A42.86,42.86,0,0,1,70,35.36,42.86,42.86,0,0,1,85.76,38l1.3-2.69,2.1-.89-.54-1.9s.28-.53.95-2.06,3.93-3.17,3.93-3.17c-2.75-2.71-5,2.72-7.93.08-1,1.44,1.1,3.17,1.1,3.17a3.27,3.27,0,0,1-2.45,1.8c-2.2.36-4.51.22-5-3.68,0,0-1.5,3.94-5,3.08a4.93,4.93,0,0,1-3.47-3.16c2.24-.26,4-1.57,4-3.15H71.54A5.36,5.36,0,0,0,70,22.51a5.29,5.29,0,0,0-1.5,2.94H65.28c0,1.58,1.71,2.89,3.94,3.15a4.89,4.89,0,0,1-3.46,3.16c-3.46.86-5-3.08-5-3.08-.44,3.9-2.75,4-5,3.68a3.27,3.27,0,0,1-2.45-1.8s2.09-1.73,1.09-3.17c-2.9,2.64-5.17-2.79-7.92-.08C46.58,27.31,49.83,29,50.5,30.48Z"/><path class="cls-11" d="M85.63,41.46a1.11,1.11,0,0,0,.11-.46c0-2.12-7-3.83-15.7-3.83S54.34,38.88,54.34,41a1.11,1.11,0,0,0,.11.46c3.34-1.7,9.07-2.83,15.59-2.83S82.29,39.76,85.63,41.46Z"/><path class="cls-11" d="M62.9,83a8,8,0,0,0-1.46,4.33l2.21,1.5-1-3.53,3-2.26Z"/><path class="cls-11" d="M73.21,82.12l-.81-2.49a8.86,8.86,0,0,0-4.72,0l-.81,2.49L70,80.07Z"/><path class="cls-11" d="M74.47,83l3,2.26-1,3.53,2.21-1.5A8.08,8.08,0,0,0,77.18,83Z"/><path class="cls-11" d="M65.38,93.48l-1.25-3.26-.87,2.46a10.59,10.59,0,0,0,.79.85,8.93,8.93,0,0,0,1.73,1.24,8.48,8.48,0,0,0,1.3.59l.9-.65,1.28-.91-3.82-.14Z"/><path class="cls-11" d="M74.72,93.42l-.09.24-3.81.14,1.24.89.93.67a9.52,9.52,0,0,0,1.41-.65,8.41,8.41,0,0,0,1.69-1.25,6.66,6.66,0,0,0,.72-.78L76,90.22Z"/><path class="cls-15" d="M108.87,111.13c.21-1,.42-2,.62-3l.09-.46h0l.58-1.56-5.46-3.84-.19-.12-1.35-.55L101.45,104h0c-.48.7-1,1.39-1.45,2.07l2,.46c1.55.38,3.1.79,4.66,1.23-.17.94-.35,1.87-.53,2.81-.09.43-.17.85-.26,1.28s-.17.84-.25,1.26c-.52,2.53-1.06,5-1.65,7.56Q98,119,92.26,118c-.75-.14-1.49-.27-2.24-.39-.7.7-1.41,1.37-2.1,2l2.3.37a130.48,130.48,0,0,1,12.8,2.88c1.14.34,1.71.52,2.84.88l.68-2.55c.63-2.51,1.22-5,1.78-7.52.09-.42.19-.84.28-1.26Z"/><path class="cls-15" d="M49.89,117.57c-.75.12-1.49.25-2.24.39Q41.83,119,36,120.65c-.6-2.6-1.17-5.19-1.69-7.8-.09-.42-.18-.84-.26-1.26s-.17-.85-.25-1.28c-.16-.86-.33-1.71-.49-2.57,1.57-.44,3.14-.85,4.71-1.24l2-.46c-.49-.68-1-1.37-1.46-2.07l-.25.06-1.53-2.1-1.35.55,0,0-5.61,4L30.3,108h0l0,.18c.18.91.37,1.81.57,2.71l.27,1.28c.09.42.19.84.28,1.26.58,2.59,1.18,5.17,1.84,7.76l.67,2.55c1.13-.36,1.7-.54,2.84-.88q6.45-1.78,12.85-2.89l2.31-.37C51.3,118.94,50.59,118.27,49.89,117.57Z"/><path class="cls-15" d="M58.77,118.75a117.73,117.73,0,0,1,22.37,0c.8.07,1.6.16,2.4.25.76-.65,1.52-1.34,2.29-2.05-.76-.11-1.53-.2-2.29-.28a120.42,120.42,0,0,0-27.17,0l-2.29.28c.77.71,1.54,1.4,2.29,2.06C57.17,118.91,58,118.83,58.77,118.75Z"/><path class="cls-12" d="M83.54,119A89.86,89.86,0,0,1,70,128.79,90.33,90.33,0,0,1,56.37,119c-.75-.66-1.52-1.35-2.29-2.06-1.4.18-2.79.39-4.19.62.7.7,1.41,1.37,2.11,2a93.79,93.79,0,0,0,18,13.23,94.37,94.37,0,0,0,18-13.22c.69-.65,1.4-1.32,2.1-2-1.39-.23-2.79-.44-4.19-.62C85.06,117.67,84.3,118.36,83.54,119Z"/><path class="cls-15" d="M94.45,104.9l1.92.38c.51-.68,1-1.38,1.52-2.09L96,102.81a134,134,0,0,0-52.08,0l-1.89.38c.49.71,1,1.41,1.51,2.09l1.92-.38A130.61,130.61,0,0,1,94.45,104.9Z"/><path class="cls-9" d="M40.29,111c-.07.32-.13.6-.18.85-.13.63-.24,1.15-.39,1.94l2.26-.43-1.15-1.62C40.66,111.49,40.49,111.25,40.29,111Z"/><path class="cls-9" d="M99.18,112c-.09-.39-.18-.79-.31-1.31-.31.45-.54.79-.76,1.13L97.27,113l2.26.41C99.39,112.84,99.29,112.4,99.18,112Z"/><path class="cls-9" d="M52,107.73a1.1,1.1,0,0,0-.39-.41,2.91,2.91,0,0,0-1.71-.15l-.39,0,.1.75.18,1.29.14,1,0,.23.17,0a4.89,4.89,0,0,0,1.41-.31,1.21,1.21,0,0,0,.59-.59,1.7,1.7,0,0,0,.13-.58,2.54,2.54,0,0,0,0-.47A2.15,2.15,0,0,0,52,107.73Z"/><path class="cls-9" d="M80.35,107.24a1.75,1.75,0,0,0-.11-.24,2,2,0,0,0-1.83-1,2.07,2.07,0,0,0-1.86.79,2.45,2.45,0,0,0-.18.29,4.38,4.38,0,0,0-.41,1.28c0,.35-.09.73-.11,1.15v.14a5.54,5.54,0,0,0,.48,2.82,1.92,1.92,0,0,0,1.67,1,2.1,2.1,0,0,0,1.84-.73,5.18,5.18,0,0,0,.8-2.83h0a9.24,9.24,0,0,0,0-1.29A4,4,0,0,0,80.35,107.24Z"/><path class="cls-9" d="M101.91,106.51l-2-.46c-1.2-.28-2.39-.53-3.59-.77l-1.92-.38a130.61,130.61,0,0,0-49,0l-1.92.38c-1.2.24-2.39.49-3.58.77l-2,.46c-1.57.39-3.14.8-4.71,1.24.16.86.33,1.71.49,2.57.08.43.17.86.25,1.28s.17.84.26,1.26c.52,2.61,1.09,5.2,1.69,7.8Q41.83,119,47.65,118c.75-.14,1.49-.27,2.24-.39,1.4-.23,2.79-.44,4.19-.62l2.29-.28a120.42,120.42,0,0,1,27.17,0c.76.08,1.53.17,2.29.28,1.4.18,2.8.39,4.19.62.75.12,1.49.25,2.24.39q5.79,1.07,11.62,2.68c.59-2.52,1.13-5,1.65-7.56.08-.42.17-.84.25-1.26s.17-.85.26-1.28c.18-.94.36-1.87.53-2.81C105,107.3,103.46,106.89,101.91,106.51Z"/><path class="cls-14" d="M56.72,113.75a1.38,1.38,0,0,1-.79-.18,7.46,7.46,0,0,1-1.32-1.35,6.85,6.85,0,0,0-1.79-1.7,4.06,4.06,0,0,0,.66-.35,2.11,2.11,0,0,0,1-1.37,2.51,2.51,0,0,0,0-.62,2.25,2.25,0,0,0-.2-.67,2,2,0,0,0-.25-.39,2.37,2.37,0,0,0-1-.72,3.83,3.83,0,0,0-1.23-.24h-.43c-.38,0-.87.06-1.48.13l-.87.12c-1,.13-1.71.22-2.49.34l-1.41.21,0,.24.08.47.19,0a1.37,1.37,0,0,1,1,.1,1,1,0,0,1,.29.5,2.21,2.21,0,0,1,.07.3l.15,1,.08.51.12.75c.13.89.27,1.73.45,2.91a1.29,1.29,0,0,1-.08.85,1,1,0,0,1-.61.33l-.25,0-.16,0a1.36,1.36,0,0,1-.7-.1,2.84,2.84,0,0,1-1-1.08c-.63-1-1.14-1.74-1.63-2.47l-.8-1.18c-.26-.38-.53-.78-.83-1.2l-.59-.84-.36-.52-.84.15c0,.24-.1.46-.15.68s-.09.41-.13.6l-.06.25c-.1.49-.2.94-.29,1.37s-.19.89-.28,1.34c-.18.9-.36,1.84-.58,3a2.22,2.22,0,0,1-.78,1.53,1.17,1.17,0,0,1-.36.16l.17.7.36-.08,2.64-.53-.15-.71a1.79,1.79,0,0,1-.76,0,.48.48,0,0,1-.31-.39,2,2,0,0,1,.05-.68c0-.18,0-.27.08-.46l2.85-.54.39.59.13.18a1.08,1.08,0,0,1,.2.38.33.33,0,0,1-.1.31,1.42,1.42,0,0,1-.74.25l.14.71c1.31-.24,2.15-.38,3.21-.55l.7-.11.61-.09.92-.14c1.41-.21,2.37-.34,4-.53l0-.17v0l-.07-.53-.16,0-.28,0a.93.93,0,0,1-.64-.15,1.22,1.22,0,0,1-.34-.8v-.07l-.27-2a6.15,6.15,0,0,1,.74-.06h.28a1,1,0,0,1,.5.29,11.32,11.32,0,0,1,.91,1.09c.67.86,1.16,1.47,1.48,1.84l0,0,.23.23h0c1.14-.12,1.72-.18,2.87-.27l0-.34Zm-17.37,0c.16-.79.26-1.31.39-1.94,0-.25.11-.53.18-.85l.54.74,1.15,1.62ZM51.92,109a1.5,1.5,0,0,1-.13.58,1.17,1.17,0,0,1-.59.59,4.8,4.8,0,0,1-1.41.31l-.16,0,0-.23-.14-1L49.27,108l-.1-.75.39,0a2.88,2.88,0,0,1,1.71.15,1,1,0,0,1,.39.41,2.34,2.34,0,0,1,.25.82A2.49,2.49,0,0,1,51.92,109Z"/><path class="cls-14" d="M62.66,113.39h-.14a1.26,1.26,0,0,1-.91-.19,1.3,1.3,0,0,1-.27-.83l-.17-2.66-.09-1.28L61,107.18v0a1.25,1.25,0,0,1,.16-.82,1.28,1.28,0,0,1,.93-.29h.16l0-.72c-2.07.11-3.1.18-5.17.35l.07.72a1.58,1.58,0,0,1,1.06.14,1.1,1.1,0,0,1,.3.76s0,0,0,.07l.1,1.23.1,1.28c.07.81.14,1.61.22,2.69a1.13,1.13,0,0,1-.17.88,1.61,1.61,0,0,1-1,.29l0,.38,0,.34c1.94-.16,2.92-.23,4.87-.33l0-.46Z"/><path class="cls-14" d="M71.08,112.4a1.7,1.7,0,0,1-.76.57,4.09,4.09,0,0,1-1.31.17l-2.13,0c1-1.46,1.72-2.56,2.48-3.65.3-.43.61-.85.93-1.3s.61-.84.95-1.29.6-.81.94-1.26v-.59c-3.3,0-5,0-8.24.15,0,.74,0,1.2,0,1.81v.54l.76,0a4.75,4.75,0,0,1,.2-.54,1.66,1.66,0,0,1,.58-.78,4.47,4.47,0,0,1,2-.34l1.58,0L68.25,107l-.91,1.31-.89,1.31c-.79,1.17-1.54,2.34-2.53,3.92v.1l0,.48c3.32-.16,5-.19,8.31-.17,0-.2,0-.38,0-.55,0-.72.09-1.23.15-2.07h-.78A3.5,3.5,0,0,1,71.08,112.4Z"/><path class="cls-14" d="M83.29,107.41a4.44,4.44,0,0,0-.54-.71,5.19,5.19,0,0,0-3.09-1.49,7.81,7.81,0,0,0-.86-.09c-.13,0-.26,0-.39,0a6.3,6.3,0,0,0-2.33.43A4.3,4.3,0,0,0,74.21,107a1.08,1.08,0,0,0-.16.2,4.59,4.59,0,0,0-.55,1.08,4,4,0,0,0-.22,1.22s0,0,0,.07a5,5,0,0,0,.5,2.14,4,4,0,0,0,1.75,1.8h0a6.95,6.95,0,0,0,5.38.41,4.55,4.55,0,0,0,1.3-.75,4.31,4.31,0,0,0,1.67-3.07.06.06,0,0,0,0,0,4.62,4.62,0,0,0-.08-1.3A3.92,3.92,0,0,0,83.29,107.41ZM81,109.84h0a5,5,0,0,1-.8,2.83,2.09,2.09,0,0,1-1.83.73,1.94,1.94,0,0,1-1.68-1,5.45,5.45,0,0,1-.47-2.82v-.14a9.56,9.56,0,0,1,.11-1.15,4.1,4.1,0,0,1,.41-1.28,1.19,1.19,0,0,1,.18-.29,2.33,2.33,0,0,1,3.69.24,1.75,1.75,0,0,1,.11.24,4.3,4.3,0,0,1,.29,1.31A8,8,0,0,1,81,109.84Z"/><path class="cls-14" d="M93.81,109a2.09,2.09,0,0,1,.09-.41,1.44,1.44,0,0,1,.15-.39,1,1,0,0,1,.5-.39,1.33,1.33,0,0,1,.71-.08l0-.25.08-.46-.63-.1-2-.29-.83-.11,0,.31-.06.4a1.82,1.82,0,0,1,.37.09,1.1,1.1,0,0,1,.77,1.14,2.48,2.48,0,0,1,0,.38l-.07.41-.07.5-.2,1.28-.15,1-.82-1.14-.09-.12c-.33-.46-.64-.89-1-1.3l-.11-.15-1-1.29L88,106.21,87.9,106c-1.32-.14-2-.21-3.3-.32v0l-.06.68c.84.07,1.26.49,1.26,1.23a1.77,1.77,0,0,1,0,.23L85.67,109c0,.46-.09.87-.13,1.28-.07.64-.14,1.29-.22,2.14a2.81,2.81,0,0,1-.18.83,1,1,0,0,1-.47.44,1.45,1.45,0,0,1-.79.13l0,.52,0,.2,1.55.14,1.91.2v-.07l.07-.65a1.51,1.51,0,0,1-.92-.38l-.07-.08a1.72,1.72,0,0,1-.16-1.2l.23-2.13.14-1.28.07-.62.53.68c.39.5.75,1,1.08,1.4.18.23.35.46.51.68.37.48.71,1,1.06,1.44.6.83,1.22,1.71,2,2.79l.08.11,0,0,.71.11.16,0,.25-1.58.47-3,.2-1.28Z"/><path class="cls-14" d="M93.73,115l-.12.71.42.07c1,.14,1.54.24,2.6.42l.14-.71a1.59,1.59,0,0,1-.71-.25.43.43,0,0,1-.15-.47,2,2,0,0,1,.31-.61l.25-.4c1.15.19,1.72.29,2.86.51l.13.68.05.21a1,1,0,0,1,0,.43.33.33,0,0,1-.21.25,1.47,1.47,0,0,1-.78,0l-.14.71c1.27.23,2.09.39,3.1.6l1.41.3.16-.7a1.39,1.39,0,0,1-.61-.34A2.78,2.78,0,0,1,102,115v-.08c-.19-1-.34-1.75-.5-2.5-.09-.47-.19-.91-.28-1.36l-.31-1.37c-.07-.32-.14-.65-.22-1s-.11-.46-.16-.7l-.06-.25-.84-.15c-.18.25-.34.5-.51.73l-.66,1-.8,1.19-.79,1.18c-.42.64-.87,1.33-1.4,2.16S94.31,115.05,93.73,115Zm4-3.19.76-1.13c.13.52.22.92.32,1.31s.21.89.34,1.49L96.9,113Z"/><path class="cls-14" d="M387.69,89.37h19.75V95.3H394.77v7.25h10.82v5.94H394.77v12.16h-7.08Z"/><path class="cls-14" d="M410,108.75c0-7.91,5.57-12.49,11.6-12.49s11.6,4.58,11.6,12.49-5.57,12.48-11.6,12.48S410,116.66,410,108.75Zm16,0c0-4.12-1.45-6.79-4.37-6.79s-4.37,2.67-4.37,6.79,1.45,6.79,4.37,6.79S426,112.88,426,108.75Z"/><path class="cls-14" d="M437.67,113.25V87h7.06v26.52c0,1.51.7,2,1.27,2a3,3,0,0,0,.87-.1l.84,5.2a9,9,0,0,1-3.54.59C439.33,121.23,437.67,118.07,437.67,113.25Z"/><path class="cls-14" d="M451.4,113.25V87h7.06v26.52c0,1.51.7,2,1.27,2a3,3,0,0,0,.87-.1l.84,5.2a9,9,0,0,1-3.54.59C453.06,121.23,451.4,118.07,451.4,113.25Z"/><path class="cls-14" d="M463.75,108.75c0-7.91,5.57-12.49,11.6-12.49s11.6,4.58,11.6,12.49-5.58,12.48-11.6,12.48S463.75,116.66,463.75,108.75Zm16,0c0-4.12-1.45-6.79-4.37-6.79s-4.37,2.67-4.37,6.79,1.45,6.79,4.37,6.79S479.72,112.88,479.72,108.75Z"/><path class="cls-14" d="M489.44,96.84h7l2.28,11c.41,2.34.67,4.66,1.08,7.07H500c.42-2.41.83-4.8,1.41-7.07l2.6-11h6.13l2.67,11c.58,2.34,1,4.66,1.49,7.07h.2c.41-2.41.67-4.73,1.09-7.07l2.26-11h6.52l-5.69,23.81h-8.26l-2.19-9.52c-.43-2.2-.83-4.39-1.27-7h-.19c-.42,2.57-.76,4.77-1.21,7l-2.09,9.5H495.4Z"/><path class="cls-14" d="M538.64,106.16V89.37h7.07v17.51c0,6.12,1.93,8.24,5.43,8.24s5.55-2.12,5.55-8.24V89.37h6.82v16.79c0,10.5-4.27,15.07-12.37,15.07S538.64,116.66,538.64,106.16Z"/><path class="cls-14" d="M567.64,117.9l3.17-4.39A10.33,10.33,0,0,0,577,116c2.1,0,3-.8,3-2.05,0-1.57-2.36-2.28-4.82-3.24-2.91-1.13-6.3-3.07-6.3-7,0-4.44,3.61-7.46,9.1-7.46a13.53,13.53,0,0,1,8.39,3l-3.15,4.24a8.83,8.83,0,0,0-5-2c-1.82,0-2.72.72-2.72,1.9,0,1.52,2.23,2.1,4.7,3,3,1.12,6.41,2.81,6.41,7.17s-3.4,7.68-9.78,7.68A15.41,15.41,0,0,1,567.64,117.9Z"/><path class="cls-14" d="M599.83,110.8c0-13.41,9.86-22.27,21.65-22.27,10.39,0,17,7.06,17,17.11,0,8.78-5.89,13.18-10.92,13.18-2.77,0-5-1.31-5.54-3.65h-.09a7.75,7.75,0,0,1-5.78,3.2c-3.75,0-6.33-2.82-6.33-7.22,0-5.86,4.2-11.77,9.71-11.77a3.75,3.75,0,0,1,3.63,2.39h.1l.7-2h4.33l-2.18,10.57c-.68,2.79.06,4.13,2.18,4.13,2.92,0,5.75-3.38,5.75-8.65,0-6.87-3.7-13-13.13-13-8.2,0-16.31,7-16.31,17.82,0,9.47,6.55,14,14,14a16.94,16.94,0,0,0,7.29-1.84l1.54,3.84a19.27,19.27,0,0,1-9.4,2.27C608.44,128.89,599.83,123.07,599.83,110.8Zm21,1,1.14-6.49a2.48,2.48,0,0,0-2.24-1.39c-2.85,0-4.61,4-4.61,6.85,0,2.14,1,3.2,2.53,3.2C618.67,113.94,619.62,113.36,620.85,111.77Z"/><path class="cls-14" d="M644.51,89.37h11.27c6.63,0,12.07,2.3,12.07,9.74,0,7.19-5.44,10.28-12.07,10.28h-4.2v11.26h-7.07Zm10.69,14.41c3.72,0,5.72-1.59,5.72-4.67s-2-4.13-5.72-4.13h-3.62v8.8Zm-.72,3.75,4.9-4.53,10,17.65h-7.91Z"/><path class="cls-14" d="M671.24,116.71l4.07-4.86a12.43,12.43,0,0,0,7.68,3.27c3,0,4.4-1.16,4.4-3s-1.78-2.6-4.51-3.72l-4.07-1.74c-3.24-1.31-6.31-4-6.31-8.52,0-5.19,4.63-9.33,11.14-9.33a14.49,14.49,0,0,1,10.07,4.1l-3.58,4.46a10.18,10.18,0,0,0-6.49-2.45c-2.44,0-4,1-4,2.8s2.05,2.62,4.78,3.71l4,1.61c3.82,1.55,6.21,4.09,6.21,8.51,0,5.2-4.33,9.7-11.79,9.7A17.24,17.24,0,0,1,671.24,116.71Z"/><path class="cls-14" d="M699.93,89.37H707v25.35h12.35v5.93H699.93Z"/><path class="cls-14" d="M730.31,89.37h8.47l9.82,31.28h-7.48L737,104.81c-.87-3.13-1.7-6.83-2.54-10.09h-.19c-.75,3.3-1.59,7-2.46,10.09l-4.11,15.84h-7.23ZM727,107.7h15v5.5H727Z"/><path class="cls-14" d="M749.9,116.39,763.73,95.3H751.21V89.37h21.25v4.26l-13.84,21.09h14v5.93H749.9Z"/><path class="cls-14" d="M775.17,117.9l3.18-4.39a10.33,10.33,0,0,0,6.14,2.5c2.1,0,3-.8,3-2.05,0-1.57-2.36-2.28-4.81-3.24-2.92-1.13-6.3-3.07-6.3-7,0-4.44,3.6-7.46,9.1-7.46a13.55,13.55,0,0,1,8.39,3l-3.16,4.24a8.78,8.78,0,0,0-5-2c-1.82,0-2.72.72-2.72,1.9,0,1.52,2.23,2.1,4.7,3,3,1.12,6.41,2.81,6.41,7.17s-3.4,7.68-9.78,7.68A15.46,15.46,0,0,1,775.17,117.9Z"/><path class="cls-14" d="M797.44,114.05c0-5,4-7.74,13.41-8.73-.14-2.08-1.18-3.44-3.76-3.44-2,0-4,.84-6.3,2.15l-2.51-4.63a19.44,19.44,0,0,1,10.17-3.14c6.09,0,9.46,3.48,9.46,10.78v13.61h-5.76l-.51-2.44h-.17a10.43,10.43,0,0,1-6.93,3A6.86,6.86,0,0,1,797.44,114.05Zm13.41-.32v-4.16c-5,.68-6.65,2.12-6.65,3.92,0,1.53,1,2.28,2.73,2.28S809.6,115,810.85,113.73Z"/></svg>