<svg xmlns="http://www.w3.org/2000/svg" xmlns:svg="http://www.w3.org/2000/svg" id="svg465" width="113.22" height="121.71" version="1.1" viewBox="0 0 29.956 32.202"><metadata id="metadata462"/><g id="layer1" transform="translate(-99.170747,-63.184498)"><path id="path255" d="m 100.8826,86.917624 q 0.65352,0.418041 1.34673,0.846666 l 0.26458,0.166688 -0.14816,0.264583 q -0.35719,0.672042 -0.71173,1.341438 1.05833,-0.277813 2.14577,-0.502709 c -0.0529,-0.238125 -0.10319,-0.47625 -0.15081,-0.717021 v -0.04763 0 l -0.15346,-0.410099 1.48431,-1.058333 c -0.14817,-0.235479 -0.29369,-0.473604 -0.43656,-0.719667 q -1.78859,0.370417 -3.64067,0.836084 z" class="cls-9" style="fill:#a90533;stroke-width:.26458332"/><path id="path257" d="m 124.74008,87.79604 -0.15346,0.41275 v 0 l -0.0238,0.121709 c -0.0529,0.264583 -0.10848,0.529166 -0.16404,0.79375 0.78052,0.164041 1.56369,0.346604 2.36008,0.547686 l -0.889,-1.322916 -0.18256,-0.277812 0.27781,-0.187854 c 0.52917,-0.357188 1.05834,-0.711729 1.54253,-1.058334 -1.28059,-0.306916 -2.52678,-0.5715 -3.7465,-0.79375 -0.15082,0.264584 -0.30692,0.529167 -0.46303,0.777875 z" class="cls-9" style="fill:#a90533;stroke-width:.26458332"/><path id="path259" d="m 129.12687,86.496936 -0.71702,-0.179917 q -2.21192,-0.555625 -4.30212,-0.944562 c -0.0556,0.105833 -0.11377,0.209021 -0.17198,0.314854 -0.0582,0.105833 -0.11642,0.211667 -0.17727,0.314854 1.21973,0.224896 2.46591,0.489479 3.7465,0.79375 -0.49477,0.34925 -1.01071,0.703792 -1.54252,1.058334 l -0.27782,0.187854 0.18257,0.277812 0.889,1.322916 c -0.79375,-0.201082 -1.5875,-0.383645 -2.36009,-0.547687 l -0.0714,0.336021 c -0.0238,0.111125 -0.0503,0.22225 -0.0741,0.333375 1.05834,0.224895 2.11667,0.478895 3.20675,0.772583 l 0.89959,0.243417 -0.50271,-0.756709 q -0.60325,-0.904874 -1.20386,-1.809749 c 0.65617,-0.447146 1.28852,-0.886354 1.88384,-1.322917 z" class="cls-10" style="fill:#f1cf35;stroke-width:.26458332"/><path id="path261" d="m 103.77714,89.047519 q -1.0795,0.227542 -2.14577,0.502709 0.35454,-0.669396 0.71173,-1.341438 l 0.14817,-0.264583 -0.26459,-0.166688 q -0.69056,-0.428625 -1.34672,-0.846666 1.85208,-0.465667 3.63008,-0.79375 l -0.18786,-0.341313 c -0.0582,-0.103187 -0.11377,-0.209021 -0.16933,-0.314854 -1.37583,0.264583 -2.78077,0.592667 -4.233332,0.968375 l -0.748771,0.195792 0.653521,0.418041 c 0.552982,0.359834 1.137712,0.732896 1.740962,1.108605 q -0.47096,0.881062 -0.94721,1.762124 l -0.37042,0.701146 0.79375,-0.216959 q 1.4314,-0.396875 2.87867,-0.6985 c -0.0238,-0.111124 -0.0503,-0.222249 -0.0741,-0.333374 z" class="cls-10" style="fill:#f1cf35;stroke-width:.26458332"/><path id="path263" d="m 114.11177,94.852477 a 24.815271,24.815271 0 0 1 -4.7625,-3.500437 l -0.61119,0.09789 a 24.233187,24.233187 0 0 0 5.37369,3.937 24.291396,24.291396 0 0 0 5.34987,-3.926416 l -0.60854,-0.0979 a 24.968729,24.968729 0 0 1 -4.74133,3.489854 z" class="cls-11" style="fill:#ffd100;stroke-width:.26458332"/><path id="path265" d="m 114.11177,93.251748 a 23.264812,23.264812 0 0 1 -2.96069,-2.116667 c -0.21167,0.02117 -0.42333,0.04233 -0.635,0.06879 a 23.899812,23.899812 0 0 0 3.59569,2.582333 23.775458,23.775458 0 0 0 3.58246,-2.590271 c -0.21167,-0.02381 -0.42334,-0.04763 -0.635,-0.06615 a 23.669625,23.669625 0 0 1 -2.94746,2.121958 z" class="cls-11" style="fill:#ffd100;stroke-width:.26458332"/><path id="path267" d="m 106.45208,85.766686 c -0.0661,-0.105833 -0.12965,-0.211667 -0.19315,-0.3175 -0.0635,-0.105833 -0.1217,-0.209021 -0.18256,-0.317501 a 19.280187,19.280187 0 0 1 -2.52412,-9.659937 V 65.002186 h 21.09787 v 10.469562 a 19.282833,19.282833 0 0 1 -2.47121,9.569979 c -0.0609,0.108479 -0.1217,0.214313 -0.1852,0.320147 -0.0635,0.105833 -0.12436,0.211666 -0.18786,0.314854 -0.26458,0.431271 -0.52917,0.841375 -0.81492,1.235604 l 0.50007,0.100542 c 0.28046,-0.402167 0.55298,-0.820209 0.81491,-1.259417 0.0635,-0.103188 0.12436,-0.209021 0.18521,-0.314854 0.0609,-0.105834 0.12171,-0.211667 0.17992,-0.317501 a 19.756437,19.756437 0 0 0 2.45004,-9.649354 V 64.539165 h -22.03979 v 10.932583 a 19.724687,19.724687 0 0 0 2.50296,9.741959 c 0.0609,0.108479 0.11906,0.214312 0.18256,0.320146 0.0635,0.105833 0.12171,0.209021 0.18521,0.312208 0.24341,0.404813 0.49741,0.79375 0.75935,1.164167 l 0.50006,-0.100542 c -0.26193,-0.365125 -0.508,-0.740833 -0.75935,-1.143 z" class="cls-11" style="fill:#ffd100;stroke-width:.26458332"/><path id="path269" d="m 104.5021,86.110644 c 0.14288,0.246063 0.2884,0.484188 0.43656,0.719667 v 0 l 0.35719,-0.145521 0.40481,0.555625 0.0662,-0.01588 c -0.26458,-0.386286 -0.52917,-0.793745 -0.76465,-1.206495 l -0.18256,-0.312208 -0.16404,-0.330729 A 20.417896,20.417896 0 0 1 102.14202,75.46381 V 63.636936 h 23.91833 v 11.834812 a 20.441708,20.441708 0 0 1 -2.45533,9.808105 l -0.17463,0.3175 c -0.0609,0.105833 -0.12171,0.209021 -0.17991,0.314854 -0.26459,0.452437 -0.5424,0.891646 -0.82815,1.322917 v 0 l 0.45508,-0.621771 0.35719,0.145521 0.0503,0.03175 c 0.15611,-0.264584 0.31221,-0.510646 0.46302,-0.777875 0.0609,-0.103188 0.11906,-0.209021 0.17727,-0.314855 0.0582,-0.105833 0.11642,-0.20902 0.17198,-0.314854 a 20.999979,20.999979 0 0 0 2.42359,-9.900709 V 63.184498 h -24.84438 v 12.28725 a 20.947062,20.947062 0 0 0 2.47915,10.009188 c 0.0556,0.105833 0.11112,0.211667 0.16933,0.314854 z" class="cls-11" style="fill:#ffd100;stroke-width:.26458332"/><path id="path271" d="m 123.43039,85.597353 0.17463,-0.3175 a 20.441708,20.441708 0 0 0 2.45533,-9.808105 V 63.636936 h -23.91833 v 11.834812 a 20.417896,20.417896 0 0 0 2.51354,9.903355 l 0.17462,0.3175 0.18257,0.312208 c 0.24606,0.418042 0.50271,0.820208 0.76464,1.2065 0.127,0.185208 0.26459,0.367771 0.38629,0.547688 0.31486,-0.07408 0.62971,-0.14023 0.94721,-0.20373 -0.13493,-0.179916 -0.26458,-0.365125 -0.39952,-0.552979 -0.26458,-0.373062 -0.52916,-0.759354 -0.75935,-1.164166 -0.0635,-0.103188 -0.12436,-0.206375 -0.18521,-0.312209 -0.0609,-0.105833 -0.12171,-0.211666 -0.18256,-0.320146 A 19.724687,19.724687 0 0 1 103.08129,75.46381 V 64.539165 h 22.03979 v 10.932583 a 19.756437,19.756437 0 0 1 -2.45004,9.638771 c -0.0582,0.105834 -0.11906,0.211667 -0.17992,0.3175 -0.0609,0.105834 -0.12171,0.211667 -0.18521,0.314855 -0.26458,0.439208 -0.52916,0.85725 -0.81491,1.259416 -0.13229,0.187854 -0.26459,0.373063 -0.40217,0.552979 0.3175,0.0635 0.63235,0.129646 0.94985,0.20373 0.12965,-0.179917 0.26459,-0.36248 0.38365,-0.547688 0.28575,-0.418042 0.56092,-0.85725 0.82815,-1.322917 0.0582,-0.08202 0.1217,-0.185208 0.17991,-0.291041 z" class="cls-12" style="fill:#a32035;stroke-width:.26458332"/><path id="path273" d="m 115.61725,72.913227 c 0,-0.92075 -0.93927,-1.386416 -2.34686,-1.386416 h -1.11918 v 2.772833 h 1.11918 c 1.37054,0 2.34686,-0.637646 2.34686,-1.386417 z m -2.56382,1.172104 a 0.96308333,0.96308333 0 0 0 -0.63764,-0.8255 V 72.77829 c 0.59267,0.105833 1.09008,0.312208 1.09008,0.695854 0,0.383646 -0.45244,0.611187 -0.45244,0.611187 z m 1.32292,-0.201083 v -0.679979 c 0,-0.330729 -0.37306,-0.423333 -0.37306,-0.423333 h 1.35202 a 1.2514792,1.2514792 0 0 1 0,0.142875 c 0.005,0.357187 -0.35719,0.746124 -0.97896,0.960437 z" class="cls-13" style="fill:#001e61;stroke-width:.26458332"/><path id="path275" d="m 117.05923,91.132435 a 31.149396,31.149396 0 0 0 -5.91873,0 23.264812,23.264812 0 0 0 2.96068,2.116667 23.669625,23.669625 0 0 0 2.95805,-2.116667 z" class="cls-13" style="fill:#001e61;stroke-width:.26458332"/><path id="path277" d="m 121.99371,85.375103 c 0.0635,-0.105834 0.12435,-0.211667 0.1852,-0.320147 a 19.282833,19.282833 0 0 0 2.47121,-9.569979 V 65.002186 h -21.09787 v 10.469562 a 19.280187,19.280187 0 0 0 2.52412,9.659937 c 0.0609,0.10848 0.12171,0.211668 0.18256,0.317501 0.0609,0.105833 0.127,0.211667 0.19315,0.3175 0.24342,0.394229 0.49742,0.777875 0.75935,1.143 a 35.454167,35.454167 0 0 1 13.7795,0 c 0.28046,-0.394229 0.55298,-0.79375 0.81492,-1.235604 0.0635,-0.100542 0.127,-0.206375 0.18786,-0.298979 z M 110.01073,66.957457 c 0.26458,0.381 -0.2884,0.838729 -0.2884,0.838729 a 0.8651875,0.8651875 0 0 0 0.64823,0.47625 c 0.58208,0.09525 1.19327,0.05821 1.32292,-0.973667 0,0 0.39423,1.042458 1.32291,0.814917 a 1.2938125,1.2938125 0 0 0 0.91546,-0.836084 c -0.61383,-0.06879 -1.06892,-0.423333 -1.06892,-0.833437 h 0.86255 a 1.3996458,1.3996458 0 0 1 0.38629,-0.777875 1.4181667,1.4181667 0 0 1 0.39687,0.777875 h 0.87313 c 0,0.418042 -0.45244,0.764646 -1.05834,0.833437 a 1.3043958,1.3043958 0 0 0 0.91811,0.836084 c 0.91281,0.227541 1.32292,-0.814917 1.32292,-0.814917 0.11641,1.031875 0.7276,1.058333 1.32291,0.973667 a 0.8651875,0.8651875 0 0 0 0.64823,-0.47625 c 0,0 -0.55298,-0.457729 -0.29104,-0.838729 0.76994,0.6985 1.37054,-0.738188 2.09815,-0.02117 0,0 -0.86255,0.436562 -1.03982,0.838729 -0.17727,0.402166 -0.25135,0.545041 -0.25135,0.545041 l 0.14287,0.502709 -0.55562,0.235479 -0.35719,0.706438 a 11.340042,11.340042 0 0 0 -4.16983,-0.6985 11.340042,11.340042 0 0 0 -4.14867,0.6985 l -0.34925,-0.706438 -0.55298,-0.235479 0.14288,-0.502708 c 0,0 -0.0767,-0.140229 -0.26459,-0.545042 -0.18785,-0.404812 -1.03716,-0.838729 -1.03716,-0.838729 0.74083,-0.717021 1.34143,0.711729 2.10873,0.02117 z M 113.998,79.17856 c 0,0 0.37835,-0.08996 0.37835,-0.418041 v -3.175 l 1.30704,1.169458 v 2.005542 h 2.4765 c 1.03982,0 1.38642,-0.576792 1.38642,-0.576792 0,0 0.60325,0.992188 -1.15623,0.992188 z m 1.94468,2.161646 a 1.3043958,1.3043958 0 0 0 -0.70908,-0.3175 l -0.0926,-0.264583 a 1.3229167,1.3229167 0 0 1 0.80169,0.582083 z m -4.74133,-2.076979 c -1.5875,0 -2.70139,-0.510646 -2.70139,-1.076854 0,-0.616479 0.76464,-0.79375 0.76464,-0.79375 -0.24606,0.883708 0.75406,1.473729 1.93675,1.473729 1.04246,0 1.5875,-0.510646 1.5875,-1.262062 0,-1.4605 -4.18042,-1.399646 -4.18042,-3.25173 0,-0.873124 0.84932,-1.365249 1.73567,-1.563687 v 0.470958 c -0.37571,0.174625 -0.64558,0.455084 -0.64558,0.79375 0,1.322917 4.31006,1.275292 4.31006,3.278188 0,0.944562 -0.8255,1.931458 -2.80723,1.931458 z m 2.00025,1.489604 a 1.4393333,1.4393333 0 0 0 -0.60589,0.627063 h -0.33603 a 1.539875,1.539875 0 0 1 0.94192,-0.627063 z m -0.62706,-2.910416 h -2.38125 c 0,0 0.40217,-0.20373 0.40217,-0.441855 v -1.042458 a 8.7497708,8.7497708 0 0 1 1.55045,0.687917 v 0.354542 c 0.005,0.238125 0.42863,0.441854 0.42863,0.441854 z m -2.60615,-7.283979 c 0,-0.560917 1.85209,-1.013354 4.15396,-1.013354 2.30188,0 4.15396,0.452437 4.15396,1.013354 a 0.2936875,0.2936875 0 0 1 -0.0291,0.121708 c -0.88371,-0.449792 -2.40242,-0.748771 -4.12486,-0.748771 -1.72244,0 -3.24114,0.298979 -4.12485,0.748771 a 0.2936875,0.2936875 0 0 1 -0.0291,-0.121708 z m 8.58573,7.530041 a 3.175,3.175 0 0 1 -1.77006,-0.685271 l -2.67229,-2.402416 a 1.4790208,1.4790208 0 0 0 -1.02659,-0.309563 h -0.93397 v 0.605896 c -0.56621,-0.219604 -1.13507,-0.399521 -1.55046,-0.597958 v -3.132667 c 0,-0.203729 -0.44715,-0.4445 -0.44715,-0.4445 h 3.3655 c 2.86279,0 3.78354,0.955146 3.78354,1.661584 0,1.468437 -2.64583,1.661583 -2.64583,1.661583 a 3.0030208,3.0030208 0 0 1 1.61396,0.740833 l 2.48973,2.267479 a 1.8335625,1.8335625 0 0 0 0.94721,0.367771 c 0,0 -0.32015,0.267229 -1.15359,0.267229 z m 0.082,-7.858125 0.0873,-0.17727 a 6.9585417,6.9585417 0 0 1 2.07698,4.101041 6.7759792,6.7759792 0 0 0 -2.16429,-3.923771 z m -7.51681,12.435417 a 7.9613125,7.9613125 0 0 1 -4.33123,-3.799417 7.8554792,7.8554792 0 0 0 4.36298,3.532188 c -0.0132,0.08467 -0.0238,0.171979 -0.0317,0.259291 z m 0.2249,-0.896938 a 7.0881875,7.0881875 0 0 1 -5.11175,-6.736291 6.969125,6.969125 0 0 1 2.95539,-5.667375 l 0.2249,0.468312 a 6.7574583,6.7574583 0 0 0 -2.73844,5.408083 6.8791667,6.8791667 0 0 0 4.70165,6.453188 z m 0.65087,2.262188 a 1.2567708,1.2567708 0 0 1 -0.29104,-0.928688 1.222375,1.222375 0 0 0 0.381,0.658813 z m 1.5875,1.132417 a 1.222375,1.222375 0 0 0 0.5715,-0.05292 1.4313958,1.4313958 0 0 0 0.20638,-0.08731 l 0.12435,0.08467 0.11642,0.07938 a 1.3943542,1.3943542 0 0 1 -1.01865,-0.02381 z m 2.64583,-1.09273 a 1.2117917,1.2117917 0 0 0 0.0926,-0.746125 l 0.23813,-0.166687 a 1.27,1.27 0 0 1 -0.33073,0.912812 z m -0.45772,-0.677333 0.3175,0.896937 c -0.0423,0.05292 -0.0873,0.105834 -0.1323,0.153459 a 2.2965833,2.2965833 0 0 1 -0.381,0.333375 2.4817917,2.4817917 0 0 1 -0.66939,0.333375 l -0.4789,-0.341313 -0.31485,-0.232833 -0.32015,0.230187 -0.46037,0.343959 a 2.4738542,2.4738542 0 0 1 -1.00807,-0.635 c -0.0529,-0.05821 -0.10583,-0.116417 -0.15345,-0.177271 l 0.3175,-0.896938 -0.79375,-0.545041 a 2.2807083,2.2807083 0 0 1 0.44185,-1.322917 h 0.9869 l 0.29368,-0.904875 a 2.5373542,2.5373542 0 0 1 0.69586,-0.08996 2.5664583,2.5664583 0 0 1 0.71702,0.103187 l 0.29369,0.904875 h 0.98425 a 2.2648333,2.2648333 0 0 1 0.4445,1.322917 z m 1.35731,-0.841375 a 3.1115,3.1115 0 0 0 -0.10584,-0.447146 7.6173542,7.6173542 0 0 0 4.59317,-6.924146 7.5009375,7.5009375 0 0 0 -2.66435,-5.712354 l 0.11906,-0.05027 a 7.635875,7.635875 0 0 1 2.94217,5.995459 7.7522917,7.7522917 0 0 1 -4.89744,7.138458 z" class="cls-13" style="fill:#001e61;stroke-width:.26458332"/><polygon id="polygon279" points="68.47 85.39 67.34 88.87 69.28 86.39 72.1 85.39" class="cls-14" transform="matrix(0.26458333,0,0,0.26458333,95.590935,59.710519)" style="fill:#fff"/><path id="path281" d="m 115.13306,81.546581 -0.29369,-0.904875 a 2.5664583,2.5664583 0 0 0 -0.7276,-0.103187 2.5373542,2.5373542 0 0 0 -0.71702,0.103187 l -0.29369,0.904875 h -0.9869 a 2.2807083,2.2807083 0 0 0 -0.44185,1.322917 l 0.79375,0.545042 -0.3175,0.896937 c 0.0476,0.06085 0.10054,0.119063 0.15346,0.177271 a 2.4738542,2.4738542 0 0 0 1.02923,0.621771 l 0.47096,-0.336021 0.30956,-0.238125 0.31221,0.224896 0.48154,0.34925 a 2.4817917,2.4817917 0 0 0 0.64823,-0.325438 2.2965833,2.2965833 0 0 0 0.381,-0.333375 c 0.045,-0.04763 0.09,-0.100541 0.13229,-0.153458 l -0.3175,-0.896938 0.79375,-0.545041 a 2.2648333,2.2648333 0 0 0 -0.4445,-1.322917 z m -1.63513,-0.767291 a 2.3442083,2.3442083 0 0 1 1.24884,0 l 0.21431,0.658812 -0.84931,-0.542396 -0.83873,0.542396 z m -1.05833,2.423583 -0.58473,-0.396875 a 2.1166667,2.1166667 0 0 1 0.37836,-1.135063 h 0.71702 l -0.79375,0.597959 z m 1.143,1.566333 -0.23812,0.171979 a 2.2436667,2.2436667 0 0 1 -0.34396,-0.156104 2.3627292,2.3627292 0 0 1 -0.45773,-0.328083 2.8019375,2.8019375 0 0 1 -0.20902,-0.224896 l 0.23019,-0.650875 0.33072,0.862542 0.0159,0.04763 1.01071,0.03704 z m 0.52917,-0.378354 -0.127,-0.579437 -0.75142,-0.529167 -0.61119,0.06085 0.52917,-0.296333 0.30163,-0.846667 -0.26459,-0.529167 0.45773,0.396875 h 0.92604 l 0.47096,-0.396875 -0.26458,0.529167 0.28575,0.846667 0.52916,0.296333 -0.61118,-0.06085 -0.75142,0.529167 z m 1.79123,-0.15875 a 1.762125,1.762125 0 0 1 -0.1905,0.206375 2.2251458,2.2251458 0 0 1 -0.44715,0.330729 2.5188333,2.5188333 0 0 1 -0.37306,0.171979 l -0.24606,-0.17727 -0.32809,-0.23548 1.00807,-0.03704 0.0238,-0.0635 0.34925,-0.846667 z m -0.10054,-1.029229 0.26458,-0.933979 -0.79375,-0.597959 h 0.71702 a 2.1378333,2.1378333 0 0 1 0.38629,1.145646 z" class="cls-14" style="fill:#fff;stroke-width:.26458332"/><path id="path283" d="m 112.59571,81.379894 a 1.4393333,1.4393333 0 0 1 0.60589,-0.627063 1.539875,1.539875 0 0 0 -0.94192,0.627063 z" class="cls-12" style="fill:#a32035;stroke-width:.26458332"/><path id="path285" d="m 119.07006,69.418082 -0.11906,0.05027 a 7.5009375,7.5009375 0 0 1 2.66435,5.712353 7.6173542,7.6173542 0 0 1 -4.59317,6.924146 3.1115,3.1115 0 0 1 0.09,0.447146 7.7522917,7.7522917 0 0 0 4.89744,-7.14375 7.635875,7.635875 0 0 0 -2.93952,-5.990166 z" class="cls-12" style="fill:#a32035;stroke-width:.26458332"/><path id="path287" d="m 106.7881,78.866352 a 7.9613125,7.9613125 0 0 0 4.33123,3.791479 c 0,-0.08731 0.0185,-0.174625 0.0317,-0.264583 a 7.8554792,7.8554792 0 0 1 -4.36298,-3.526896 z" class="cls-12" style="fill:#a32035;stroke-width:.26458332"/><path id="path289" d="M 115.35002,72.770352 H 113.998 c 0,0 0.37835,0.0926 0.37835,0.433917 v 0.690562 c 0.62706,-0.214312 0.98954,-0.60325 0.98954,-0.97102 a 1.2514792,1.2514792 0 0 0 -0.0159,-0.153459 z" class="cls-12" style="fill:#a32035;stroke-width:.26458332"/><path id="path291" d="m 119.54631,78.186373 c 0,0 -0.3466,0.574146 -1.38642,0.574146 h -2.48179 v -2.010834 l -1.30175,-1.164166 v 3.175 c 0,0.333375 -0.37306,0.423333 -0.37306,0.423333 h 4.39208 c 1.75419,-0.0053 1.15094,-0.997479 1.15094,-0.997479 z" class="cls-12" style="fill:#a32035;stroke-width:.26458332"/><path id="path293" d="m 112.40785,72.77829 v 0.481541 a 0.96308333,0.96308333 0 0 1 0.64558,0.8255 c 0,0 0.45244,-0.214312 0.45244,-0.611187 0,-0.396875 -0.50535,-0.590021 -1.09802,-0.695854 z" class="cls-12" style="fill:#a32035;stroke-width:.26458332"/><path id="path295" d="m 114.00858,77.342352 c 0,-2.002896 -4.31006,-1.960562 -4.31006,-3.278187 0,-0.343959 0.26458,-0.624417 0.64558,-0.79375 v -0.47625 c -0.88635,0.198437 -1.73567,0.690562 -1.73567,1.563687 0,1.852083 4.18042,1.791229 4.18042,3.251729 0,0.751417 -0.54504,1.262063 -1.5875,1.262063 -1.18269,0 -2.18281,-0.590021 -1.93675,-1.473729 0,0 -0.76464,0.171979 -0.76464,0.79375 0,0.568854 1.11389,1.071562 2.70139,1.071562 1.98173,0 2.80723,-0.986896 2.80723,-1.920875 z" class="cls-12" style="fill:#a32035;stroke-width:.26458332"/><path id="path297" d="m 111.70406,83.102331 a 1.2567708,1.2567708 0 0 0 0.29104,0.928688 l 0.09,-0.264584 a 1.222375,1.222375 0 0 1 -0.381,-0.664104 z" class="cls-12" style="fill:#a32035;stroke-width:.26458332"/><path id="path299" d="m 114.36048,85.017915 a 1.4313958,1.4313958 0 0 1 -0.20638,0.08731 1.222375,1.222375 0 0 1 -0.5715,0.05821 1.3943542,1.3943542 0 0 0 1.00806,0.01852 l -0.11641,-0.07937 z" class="cls-12" style="fill:#a32035;stroke-width:.26458332"/><path id="path301" d="m 116.30781,83.324581 a 1.2117917,1.2117917 0 0 1 -0.0794,0.746125 1.27,1.27 0 0 0 0.33073,-0.912812 z" class="cls-12" style="fill:#a32035;stroke-width:.26458332"/><path id="path303" d="m 115.2336,81.022706 a 1.3043958,1.3043958 0 0 1 0.70908,0.3175 1.3229167,1.3229167 0 0 0 -0.79375,-0.587375 z" class="cls-12" style="fill:#a32035;stroke-width:.26458332"/><path id="path305" d="m 115.61196,83.348394 -0.52917,-0.296334 -0.29104,-0.851958 0.26458,-0.529167 -0.45773,0.396875 h -0.92604 l -0.47096,-0.396875 0.26458,0.529167 -0.28839,0.846667 -0.52917,0.296333 0.61119,-0.06085 0.75142,0.529167 0.10054,0.579437 0.127,-0.579437 0.75141,-0.529167 z m -1.69069,-0.79375 -0.51065,0.656166 0.29634,-0.92075 h 0.96043 z" class="cls-12" style="fill:#a32035;stroke-width:.26458332"/><path id="path307" d="m 118.72346,70.053082 -0.0873,0.17727 a 6.7759792,6.7759792 0 0 1 2.16429,3.923771 6.9585417,6.9585417 0 0 0 -2.07698,-4.101041 z" class="cls-11" style="fill:#ffd100;stroke-width:.26458332"/><path id="path309" d="m 106.67433,75.24156 a 6.7574583,6.7574583 0 0 1 2.73844,-5.408083 l -0.2249,-0.468312 a 6.969125,6.969125 0 0 0 -2.95539,5.667375 7.0881875,7.0881875 0 0 0 5.11175,6.728354 l 0.0318,-0.06615 a 6.8791667,6.8791667 0 0 1 -4.70165,-6.453184 z" class="cls-11" style="fill:#ffd100;stroke-width:.26458332"/><path id="path311" d="M 118.77373,77.453477 116.284,75.185998 a 3.0030208,3.0030208 0 0 0 -1.61396,-0.740833 c 0,0 2.64583,-0.193146 2.64583,-1.661583 0,-0.706438 -0.92075,-1.661584 -3.78354,-1.661584 h -3.38931 c 0,0 0.44714,0.240771 0.44714,0.4445 v 3.132667 c 0.4154,0.198437 0.98425,0.378354 1.55046,0.597958 v -0.605896 h 0.9234 a 1.4790208,1.4790208 0 0 1 1.04775,0.309563 l 2.67229,2.402416 a 3.175,3.175 0 0 0 1.77006,0.685271 c 0.83344,0 1.16681,-0.264583 1.16681,-0.264583 a 1.8335625,1.8335625 0 0 1 -0.9472,-0.370417 z m -5.50334,-3.153833 h -1.11918 v -2.772833 h 1.11918 c 1.40759,0 2.34686,0.465666 2.34686,1.386416 0,0.748771 -0.97632,1.386417 -2.34686,1.386417 z" class="cls-11" style="fill:#ffd100;stroke-width:.26458332"/><path id="path313" d="m 110.60075,76.358102 v 1.042458 c 0,0.238125 -0.40217,0.441855 -0.40217,0.441855 h 2.38125 c 0,0 -0.42333,-0.20373 -0.42333,-0.441855 v -0.354541 a 8.7497708,8.7497708 0 0 0 -1.55575,-0.687917 z" class="cls-11" style="fill:#ffd100;stroke-width:.26458332"/><path id="path315" d="m 108.95239,67.775019 c 0.17727,0.404813 0.26459,0.545042 0.26459,0.545042 l -0.14288,0.502708 0.55298,0.235479 0.33602,0.706438 a 11.340042,11.340042 0 0 1 4.14867,-0.6985 11.340042,11.340042 0 0 1 4.16983,0.6985 l 0.34396,-0.711729 0.55562,-0.23548 -0.14287,-0.502708 c 0,0 0.0741,-0.140229 0.25135,-0.545042 0.17727,-0.404812 1.03982,-0.838729 1.03982,-0.838729 -0.72761,-0.717021 -1.32292,0.719667 -2.09815,0.02117 -0.26458,0.381 0.29104,0.838729 0.29104,0.838729 a 0.8651875,0.8651875 0 0 1 -0.64823,0.47625 c -0.58208,0.09525 -1.19327,0.05821 -1.32291,-0.973666 0,0 -0.39688,1.042458 -1.32292,0.814916 a 1.3043958,1.3043958 0 0 1 -0.9181,-0.836083 c 0.59266,-0.06879 1.05833,-0.415396 1.05833,-0.833438 h -0.84931 a 1.4181667,1.4181667 0 0 0 -0.40746,-0.772583 1.3996458,1.3996458 0 0 0 -0.39688,0.777875 h -0.85196 c 0,0.418042 0.45244,0.764646 1.04246,0.833437 a 1.2938125,1.2938125 0 0 1 -0.91546,0.836084 c -0.91545,0.227541 -1.32291,-0.814917 -1.32291,-0.814917 -0.11642,1.031875 -0.72761,1.058333 -1.32292,0.973667 a 0.8651875,0.8651875 0 0 1 -0.64823,-0.47625 c 0,0 0.55298,-0.457729 0.2884,-0.838729 -0.76729,0.6985 -1.3679,-0.738188 -2.0955,-0.02117 0.0265,0 0.88635,0.447145 1.06362,0.838729 z" class="cls-11" style="fill:#ffd100;stroke-width:.26458332"/><path id="path317" d="m 118.24721,70.680144 a 0.2936875,0.2936875 0 0 0 0.0291,-0.121708 c 0,-0.560917 -1.85209,-1.013354 -4.15396,-1.013354 -2.30188,0 -4.15396,0.452437 -4.15396,1.013354 a 0.2936875,0.2936875 0 0 0 0.0291,0.121708 c 0.88371,-0.449792 2.39977,-0.748771 4.12485,-0.748771 1.72509,0 3.24115,0.298979 4.12486,0.748771 z" class="cls-11" style="fill:#ffd100;stroke-width:.26458332"/><path id="path319" d="m 112.23323,81.670935 a 2.1166667,2.1166667 0 0 0 -0.3863,1.145646 l 0.58473,0.396875 -0.26458,-0.933979 0.79375,-0.597958 z" class="cls-11" style="fill:#ffd100;stroke-width:.26458332"/><path id="path321" d="m 114.96108,81.438102 -0.21431,-0.658812 a 2.3442083,2.3442083 0 0 0 -1.24884,0 l -0.21431,0.658812 0.82815,-0.542396 z" class="cls-11" style="fill:#ffd100;stroke-width:.26458332"/><path id="path323" d="m 115.29446,81.670935 0.79375,0.597959 -0.26459,0.933979 0.58473,-0.396875 a 2.1378333,2.1378333 0 0 0 -0.39687,-1.135063 z" class="cls-11" style="fill:#ffd100;stroke-width:.26458332"/><path id="path325" d="m 112.88939,84.443769 -0.33073,-0.862542 -0.23018,0.650875 a 2.8019375,2.8019375 0 0 0 0.20902,0.224896 2.3627292,2.3627292 0 0 0 0.45773,0.328083 2.2436667,2.2436667 0 0 0 0.34395,0.156104 l 0.23813,-0.171979 0.33867,-0.240771 -1.01071,-0.03704 z" class="cls-11" style="fill:#ffd100;stroke-width:.26458332"/><path id="path327" d="m 115.3606,84.427894 -0.0238,0.0635 -1.00806,0.03704 0.32808,0.23548 0.24606,0.17727 a 2.5188333,2.5188333 0 0 0 0.37307,-0.171979 2.2251458,2.2251458 0 0 0 0.44714,-0.330729 1.762125,1.762125 0 0 0 0.1905,-0.206375 l -0.21431,-0.650875 z" class="cls-11" style="fill:#ffd100;stroke-width:.26458332"/><path id="path329" d="m 124.39612,89.113665 c 0.0556,-0.264583 0.11113,-0.529166 0.16404,-0.79375 l 0.0238,-0.121708 v 0 l 0.15346,-0.41275 -1.44462,-1.016 -0.0503,-0.03175 -0.35719,-0.145521 -0.45244,0.635 v 0 c -0.127,0.185208 -0.26458,0.367771 -0.38364,0.547688 l 0.52916,0.121708 c 0.41011,0.100542 0.82021,0.209021 1.23296,0.325437 -0.045,0.248709 -0.0926,0.494771 -0.14023,0.74348 -0.0238,0.11377 -0.045,0.224895 -0.0688,0.338666 -0.0238,0.113771 -0.045,0.22225 -0.0661,0.333375 -0.13758,0.669395 -0.28046,1.322916 -0.43656,2.00025 q -1.57956,-0.441855 -3.09827,-0.706438 c -0.19844,-0.03704 -0.39423,-0.07144 -0.59267,-0.103187 -0.18521,0.185208 -0.37306,0.362479 -0.55562,0.529166 l 0.60854,0.0979 a 34.522833,34.522833 0 0 1 3.38667,0.762 c 0.30162,0.08996 0.45243,0.137583 0.75141,0.232833 l 0.17992,-0.674687 c 0.16669,-0.664104 0.32279,-1.322917 0.47096,-1.989667 0.0238,-0.111125 0.0503,-0.222249 0.0741,-0.333374 z" class="cls-15" style="fill:#f3cf1e;stroke-width:.26458332"/><path id="path331" d="m 108.791,90.817581 c -0.19844,0.03175 -0.39423,0.06615 -0.59267,0.103188 q -1.53987,0.275166 -3.0824,0.711729 c -0.15875,-0.687917 -0.30956,-1.373188 -0.44714,-2.063749 -0.0238,-0.111125 -0.0476,-0.22225 -0.0688,-0.333375 -0.0212,-0.111125 -0.045,-0.224896 -0.0661,-0.338667 -0.0423,-0.227542 -0.0873,-0.452438 -0.12964,-0.679979 0.41539,-0.116417 0.83079,-0.224896 1.24618,-0.328084 l 0.52917,-0.121708 c -0.12965,-0.179917 -0.26458,-0.362479 -0.38629,-0.547687 l -0.0662,0.01588 -0.40481,-0.555625 -0.35719,0.14552 v 0 l -1.48431,1.058334 0.127,0.402166 v 0 0.04763 c 0.0476,0.240771 0.0979,0.478896 0.15081,0.717021 l 0.0714,0.338667 c 0.0238,0.111125 0.0503,0.22225 0.0741,0.333374 0.15346,0.685271 0.31221,1.367896 0.48684,2.053167 l 0.17727,0.674677 c 0.29898,-0.09525 0.44979,-0.142875 0.75141,-0.232833 q 1.70657,-0.470958 3.3999,-0.764646 l 0.61119,-0.0979 c -0.16666,-0.174621 -0.35451,-0.351891 -0.53972,-0.5371 z" class="cls-15" style="fill:#f3cf1e;stroke-width:.26458332"/><path id="path333" d="m 111.1405,91.12979 a 31.149396,31.149396 0 0 1 5.91873,0 c 0.21166,0.01852 0.42333,0.04233 0.635,0.06615 0.20108,-0.171979 0.40216,-0.354541 0.60589,-0.542395 -0.20108,-0.02911 -0.40481,-0.05292 -0.60589,-0.07408 a 31.861125,31.861125 0 0 0 -7.18873,0 l -0.6059,0.07408 c 0.20373,0.187854 0.40746,0.370416 0.6059,0.545041 0.21166,-0.02646 0.43127,-0.04763 0.635,-0.06879 z" class="cls-15" style="fill:#f3cf1e;stroke-width:.26458332"/><path id="path335" d="m 117.69423,91.195935 a 23.775458,23.775458 0 0 1 -3.58246,2.590271 23.899812,23.899812 0 0 1 -3.60627,-2.590271 c -0.19844,-0.174625 -0.40217,-0.357187 -0.6059,-0.545041 -0.37042,0.04763 -0.73819,0.103187 -1.1086,0.164041 0.18521,0.185209 0.37306,0.36248 0.55827,0.529167 a 24.815271,24.815271 0 0 0 4.7625,3.500438 24.968729,24.968729 0 0 0 4.7625,-3.497792 c 0.18256,-0.171979 0.37041,-0.34925 0.55562,-0.529167 -0.36777,-0.06085 -0.73818,-0.116416 -1.1086,-0.164041 -0.2249,0.1905 -0.42598,0.373062 -0.62706,0.542395 z" class="cls-12" style="fill:#a32035;stroke-width:.26458332"/><path id="path337" d="m 120.58083,87.465311 0.508,0.100542 c 0.13494,-0.179917 0.26458,-0.365125 0.40217,-0.552979 l -0.50007,-0.100542 a 35.454167,35.454167 0 0 0 -13.7795,0 l -0.50006,0.100542 c 0.12965,0.187854 0.26459,0.373062 0.39952,0.552979 l 0.508,-0.100542 a 34.557229,34.557229 0 0 1 12.96194,0 z" class="cls-15" style="fill:#f3cf1e;stroke-width:.26458332"/><path id="path339" d="m 106.251,89.079269 c -0.0185,0.08467 -0.0344,0.15875 -0.0476,0.224896 -0.0344,0.166688 -0.0635,0.304271 -0.10319,0.513291 l 0.59796,-0.113771 -0.30427,-0.428624 c -0.045,-0.06615 -0.09,-0.129646 -0.14287,-0.195792 z" class="cls-9" style="fill:#a90533;stroke-width:.26458332"/><path id="path341" d="m 121.83231,89.343853 c -0.0238,-0.103188 -0.0476,-0.209021 -0.082,-0.346604 -0.082,0.119062 -0.14288,0.20902 -0.20108,0.298979 l -0.22225,0.312208 0.59795,0.108479 c -0.037,-0.150812 -0.0635,-0.267229 -0.0926,-0.373062 z" class="cls-9" style="fill:#a90533;stroke-width:.26458332"/><path id="path343" d="m 109.34927,88.214082 a 0.29104167,0.29104167 0 0 0 -0.10319,-0.108479 0.7699375,0.7699375 0 0 0 -0.45244,-0.03969 h -0.10318 l 0.0264,0.198438 0.0476,0.341312 0.037,0.264584 v 0.06085 h 0.045 a 1.2938125,1.2938125 0 0 0 0.37306,-0.08202 0.32014583,0.32014583 0 0 0 0.15611,-0.156104 0.44979167,0.44979167 0 0 0 0.0344,-0.153459 0.67204167,0.67204167 0 0 0 0,-0.124354 0.56885417,0.56885417 0 0 0 -0.0609,-0.201083 z" class="cls-9" style="fill:#a90533;stroke-width:.26458332"/><path id="path345" d="m 116.85021,88.084436 a 0.46302083,0.46302083 0 0 0 -0.0291,-0.0635 0.52916667,0.52916667 0 0 0 -0.48419,-0.264583 0.5476875,0.5476875 0 0 0 -0.49213,0.209021 0.64822917,0.64822917 0 0 0 -0.0476,0.07673 1.158875,1.158875 0 0 0 -0.10848,0.338666 c 0,0.0926 -0.0238,0.193146 -0.0291,0.304271 v 0.03704 a 1.4657917,1.4657917 0 0 0 0.127,0.746125 0.508,0.508 0 0 0 0.44186,0.264583 0.555625,0.555625 0 0 0 0.48683,-0.193146 1.3705417,1.3705417 0 0 0 0.21167,-0.74877 v 0 a 2.44475,2.44475 0 0 0 0,-0.341313 1.0583333,1.0583333 0 0 0 -0.0767,-0.365125 z" class="cls-9" style="fill:#a90533;stroke-width:.26458332"/><path id="path347" d="m 122.55462,87.89129 -0.52916,-0.121708 c -0.3175,-0.07408 -0.63236,-0.140229 -0.94986,-0.203729 l -0.508,-0.100542 a 34.557229,34.557229 0 0 0 -12.96458,0 l -0.508,0.100542 c -0.3175,0.0635 -0.63236,0.129646 -0.94721,0.203729 l -0.52917,0.121708 c -0.41539,0.103188 -0.83079,0.211667 -1.24618,0.328084 0.0423,0.227541 0.0873,0.452437 0.12964,0.679979 0.0212,0.113771 0.045,0.227541 0.0662,0.338666 0.0212,0.111125 0.045,0.22225 0.0688,0.333375 0.13758,0.690562 0.2884,1.375833 0.44715,2.06375 q 1.57427,-0.439209 3.11414,-0.703792 c 0.19844,-0.03704 0.39423,-0.07144 0.59267,-0.103187 0.37041,-0.06086 0.73819,-0.116417 1.1086,-0.164042 l 0.6059,-0.07408 a 31.861125,31.861125 0 0 1 7.18873,0 c 0.20108,0.02117 0.40481,0.04498 0.60589,0.07408 0.37042,0.04763 0.74084,0.103187 1.10861,0.164042 0.19843,0.03175 0.39423,0.06614 0.59266,0.103187 q 1.53194,0.283104 3.07446,0.709083 c 0.15611,-0.66675 0.29898,-1.322916 0.43656,-2.000249 0.0212,-0.111125 0.045,-0.22225 0.0661,-0.333375 0.0212,-0.111125 0.045,-0.224896 0.0688,-0.338667 0.0476,-0.248708 0.0953,-0.49477 0.14023,-0.743479 -0.41539,-0.124354 -0.82285,-0.232833 -1.23295,-0.333375 z" class="cls-9" style="fill:#a90533;stroke-width:.26458332"/><path id="path349" d="m 110.5981,89.806873 a 0.365125,0.365125 0 0 1 -0.20902,-0.04763 1.9737917,1.9737917 0 0 1 -0.34925,-0.357187 1.8123958,1.8123958 0 0 0 -0.4736,-0.449792 1.0742083,1.0742083 0 0 0 0.17462,-0.0926 0.55827083,0.55827083 0 0 0 0.26458,-0.362479 0.66410417,0.66410417 0 0 0 0,-0.164042 0.5953125,0.5953125 0 0 0 -0.0529,-0.17727 0.52916667,0.52916667 0 0 0 -0.0662,-0.103188 0.6270625,0.6270625 0 0 0 -0.26458,-0.1905 1.0133542,1.0133542 0 0 0 -0.32544,-0.0635 h -0.11377 c -0.10054,0 -0.23019,0.01588 -0.39158,0.0344 l -0.23019,0.03175 c -0.26458,0.0344 -0.45244,0.05821 -0.65881,0.08996 l -0.37306,0.05556 v 0.0635 l 0.0212,0.124354 h 0.0503 a 0.36247917,0.36247917 0 0 1 0.26459,0.02646 0.26458333,0.26458333 0 0 1 0.0767,0.132292 0.58472917,0.58472917 0 0 1 0.0185,0.07937 l 0.0397,0.264583 0.0212,0.134938 0.0318,0.198437 c 0.0344,0.235479 0.0714,0.457729 0.11906,0.769937 a 0.3413125,0.3413125 0 0 1 -0.0212,0.224896 0.26458333,0.26458333 0 0 1 -0.1614,0.08731 h -0.0661 -0.0423 a 0.35983333,0.35983333 0 0 1 -0.18521,-0.02645 0.75141667,0.75141667 0 0 1 -0.26458,-0.28575 c -0.16669,-0.264583 -0.30163,-0.460374 -0.43127,-0.65352 l -0.21167,-0.312208 c -0.0688,-0.100542 -0.14023,-0.206375 -0.2196,-0.3175 l -0.15611,-0.22225 -0.0953,-0.137584 -0.22225,0.03969 c 0,0.0635 -0.0265,0.121708 -0.0397,0.179916 -0.0132,0.05821 -0.0238,0.10848 -0.0344,0.15875 l -0.0159,0.06615 c -0.0264,0.129646 -0.0529,0.248709 -0.0767,0.362479 -0.0238,0.113771 -0.0503,0.23548 -0.0741,0.354542 -0.0476,0.238125 -0.0952,0.486833 -0.15346,0.793749 a 0.587375,0.587375 0 0 1 -0.20637,0.404813 0.3095625,0.3095625 0 0 1 -0.0953,0.04233 l 0.045,0.185209 0.0953,-0.02117 0.6985,-0.140229 -0.0397,-0.187854 a 0.47360417,0.47360417 0 0 1 -0.20108,0 0.127,0.127 0 0 1 -0.082,-0.103188 0.52916667,0.52916667 0 0 1 0.0132,-0.179917 c 0,-0.04763 0,-0.07144 0.0212,-0.121708 l 0.75406,-0.142875 0.10319,0.156104 0.0344,0.04763 a 0.28575,0.28575 0 0 1 0.0529,0.100542 0.0873125,0.0873125 0 0 1 -0.0265,0.08202 0.37570833,0.37570833 0 0 1 -0.19579,0.06615 l 0.037,0.187854 c 0.3466,-0.0635 0.56885,-0.100542 0.84931,-0.145521 l 0.18521,-0.0291 0.16139,-0.02381 0.24342,-0.03704 c 0.37306,-0.05556 0.62706,-0.08996 1.05833,-0.14023 v -0.04498 0 l -0.0185,-0.140229 h -0.0423 -0.0741 a 0.2460625,0.2460625 0 0 1 -0.16934,-0.0397 0.32279167,0.32279167 0 0 1 -0.09,-0.211667 v -0.01852 l -0.0714,-0.529166 a 1.6271875,1.6271875 0 0 1 0.19579,-0.01588 h 0.0741 a 0.26458333,0.26458333 0 0 1 0.13229,0.07673 2.9950833,2.9950833 0 0 1 0.24077,0.288396 c 0.17727,0.227541 0.30692,0.388937 0.39159,0.486833 v 0 l 0.0609,0.06085 v 0 c 0.30162,-0.03175 0.45508,-0.04763 0.75935,-0.07144 v -0.08996 z m -4.59581,0 c 0.0423,-0.20902 0.0688,-0.346604 0.10319,-0.513291 0,-0.06615 0.0291,-0.140229 0.0476,-0.224896 l 0.14288,0.195792 0.30427,0.428624 z m 3.32581,-1.25677 a 0.396875,0.396875 0 0 1 -0.0344,0.153458 0.3095625,0.3095625 0 0 1 -0.1561,0.156104 1.27,1.27 0 0 1 -0.37307,0.08202 h -0.0423 v -0.06085 l -0.037,-0.264586 -0.0582,-0.33073 -0.0265,-0.198437 h 0.10318 a 0.762,0.762 0 0 1 0.45244,0.03969 0.26458333,0.26458333 0 0 1 0.10319,0.10848 0.619125,0.619125 0 0 1 0.0662,0.216958 0.6588125,0.6588125 0 0 1 0.003,0.0979 z" class="cls-14" style="fill:#fff;stroke-width:.26458332"/><path id="path351" d="m 112.16973,89.711623 h -0.037 a 0.333375,0.333375 0 0 1 -0.24077,-0.05027 0.34395833,0.34395833 0 0 1 -0.0714,-0.219603 l -0.045,-0.703792 -0.0238,-0.338667 -0.0212,-0.330729 v 0 a 0.33072917,0.33072917 0 0 1 0.0423,-0.216958 0.33866667,0.33866667 0 0 1 0.24606,-0.07673 h 0.0423 v -0.1905 c -0.54769,0.0291 -0.82021,0.04763 -1.3679,0.0926 l 0.0185,0.1905 a 0.41804167,0.41804167 0 0 1 0.28046,0.03704 0.29104167,0.29104167 0 0 1 0.0794,0.201084 c 0,0 0,0 0,0.01852 l 0.0265,0.325437 0.0265,0.338667 c 0.0185,0.214312 0.037,0.425979 0.0582,0.711729 a 0.29897917,0.29897917 0 0 1 -0.045,0.232833 0.42597917,0.42597917 0 0 1 -0.26458,0.07673 v 0.100541 0.08996 c 0.51329,-0.04233 0.77258,-0.06085 1.28852,-0.08731 v -0.121707 z" class="cls-14" style="fill:#fff;stroke-width:.26458332"/><path id="path353" d="m 114.39752,89.449686 a 0.44979167,0.44979167 0 0 1 -0.20109,0.150813 1.0821458,1.0821458 0 0 1 -0.3466,0.04498 h -0.56356 c 0.26458,-0.386291 0.45508,-0.677333 0.65616,-0.965728 0.0794,-0.113771 0.1614,-0.224896 0.24607,-0.343959 0.0847,-0.119062 0.16139,-0.22225 0.25135,-0.341312 0.09,-0.119063 0.15875,-0.214313 0.24871,-0.333375 v -0.156104 c -0.87313,0 -1.32292,0 -2.18017,0.03969 0,0.195792 0,0.3175 0,0.478896 v 0.142875 h 0.20109 a 1.2567708,1.2567708 0 0 1 0.0529,-0.142875 0.43920833,0.43920833 0 0 1 0.15345,-0.206375 1.1826875,1.1826875 0 0 1 0.52917,-0.08996 h 0.41804 l -0.21431,0.293684 -0.24077,0.346604 -0.23548,0.346604 c -0.20902,0.309563 -0.40746,0.619125 -0.6694,1.037166 v 0.02646 0.127 c 0.87842,-0.04233 1.32292,-0.05027 2.19869,-0.04498 0,-0.05292 0,-0.100542 0,-0.145521 0,-0.1905 0.0238,-0.325437 0.0397,-0.547687 h -0.20638 a 0.92604167,0.92604167 0 0 1 -0.13758,0.283104 z" class="cls-14" style="fill:#fff;stroke-width:.26458332"/><path id="path355" d="m 117.62808,88.129415 a 1.17475,1.17475 0 0 0 -0.14287,-0.187854 1.3731875,1.3731875 0 0 0 -0.81757,-0.394229 2.0663958,2.0663958 0 0 0 -0.22754,-0.02381 c -0.0344,0 -0.0688,0 -0.10319,0 a 1.666875,1.666875 0 0 0 -0.61648,0.113771 1.1377083,1.1377083 0 0 0 -0.49477,0.383646 0.28575,0.28575 0 0 0 -0.0423,0.05292 1.2144375,1.2144375 0 0 0 -0.14552,0.28575 1.0583333,1.0583333 0 0 0 -0.0582,0.322791 c 0,0 0,0 0,0.01852 a 1.3229167,1.3229167 0 0 0 0.1323,0.566209 1.0583333,1.0583333 0 0 0 0.46302,0.476249 v 0 a 1.8388542,1.8388542 0 0 0 1.42345,0.108479 1.2038542,1.2038542 0 0 0 0.34396,-0.198437 1.1403542,1.1403542 0 0 0 0.44186,-0.812271 1.222375,1.222375 0 0 0 -0.0212,-0.343958 1.0371667,1.0371667 0 0 0 -0.13494,-0.367771 z m -0.6059,0.642938 v 0 a 1.3229167,1.3229167 0 0 1 -0.21166,0.748771 0.55297917,0.55297917 0 0 1 -0.48419,0.193145 0.51329167,0.51329167 0 0 1 -0.4445,-0.264583 1.4419792,1.4419792 0 0 1 -0.12435,-0.746125 v -0.03704 a 2.5294167,2.5294167 0 0 1 0.0291,-0.30427 1.0847917,1.0847917 0 0 1 0.10848,-0.338667 0.31485417,0.31485417 0 0 1 0.0476,-0.07673 0.61647917,0.61647917 0 0 1 0.97631,0.0635 0.46302083,0.46302083 0 0 1 0.0291,0.0635 1.1377083,1.1377083 0 0 1 0.0767,0.346604 2.1166667,2.1166667 0 0 1 -0.003,0.351896 z" class="cls-14" style="fill:#fff;stroke-width:.26458332"/><path id="path357" d="m 120.4115,88.550103 a 0.55297917,0.55297917 0 0 1 0.0238,-0.108479 0.381,0.381 0 0 1 0.0397,-0.103188 0.26458333,0.26458333 0 0 1 0.13229,-0.103187 0.35189583,0.35189583 0 0 1 0.18785,-0.02117 v -0.06615 l 0.0212,-0.121708 -0.16668,-0.02646 -0.52917,-0.07673 -0.2196,-0.0291 v 0.08202 l -0.0159,0.105833 a 0.48154167,0.48154167 0 0 1 0.0979,0.02381 0.29104167,0.29104167 0 0 1 0.20372,0.301625 0.65616667,0.65616667 0 0 1 0,0.100541 l -0.0185,0.10848 -0.0185,0.132291 -0.0529,0.338667 -0.0397,0.264583 -0.21695,-0.301625 -0.0238,-0.03175 c -0.0873,-0.121708 -0.16934,-0.235479 -0.26459,-0.343958 l -0.0291,-0.03969 -0.26458,-0.341312 -0.38365,-0.481542 -0.0265,-0.05556 c -0.34925,-0.03704 -0.52916,-0.05556 -0.87312,-0.08467 v 0 l -0.0159,0.179917 c 0.22225,0.01852 0.33337,0.129646 0.33337,0.325437 a 0.4683125,0.4683125 0 0 1 0,0.06085 l -0.0344,0.312209 c 0,0.121708 -0.0238,0.230187 -0.0344,0.338666 -0.0185,0.169334 -0.037,0.341313 -0.0582,0.566209 a 0.74347917,0.74347917 0 0 1 -0.0476,0.219603 0.26458333,0.26458333 0 0 1 -0.12435,0.116417 0.38364583,0.38364583 0 0 1 -0.20902,0.0344 v 0.137583 0.05292 l 0.4101,0.03704 0.50536,0.05292 v -0.01852 l 0.0185,-0.171979 a 0.39952083,0.39952083 0 0 1 -0.24341,-0.100535 l -0.0185,-0.02117 a 0.45508333,0.45508333 0 0 1 -0.0423,-0.3175 l 0.0609,-0.563562 0.037,-0.338667 0.0185,-0.164041 0.14023,0.179916 c 0.10318,0.132292 0.19843,0.264584 0.28575,0.370417 0.0476,0.06085 0.0926,0.121708 0.13493,0.179917 0.0979,0.127 0.18786,0.264583 0.28046,0.381 0.15875,0.219603 0.32279,0.452437 0.52917,0.738187 l 0.0212,0.0291 v 0 l 0.18785,0.0291 h 0.0423 l 0.0662,-0.418042 0.12436,-0.793749 0.0529,-0.338667 z" class="cls-14" style="fill:#fff;stroke-width:.26458332"/><path id="path359" d="m 120.39033,90.137602 -0.0318,0.187854 0.11113,0.01852 c 0.26458,0.03704 0.40745,0.0635 0.68791,0.111125 l 0.037,-0.187854 a 0.4206875,0.4206875 0 0 1 -0.18785,-0.06615 0.11377083,0.11377083 0 0 1 -0.0397,-0.124354 0.52916667,0.52916667 0 0 1 0.082,-0.161396 l 0.0662,-0.105833 c 0.30427,0.05027 0.45508,0.07673 0.75671,0.134937 l 0.0344,0.179917 0.0132,0.05556 a 0.26458333,0.26458333 0 0 1 0,0.113771 0.0873125,0.0873125 0 0 1 -0.0556,0.06615 0.3889375,0.3889375 0 0 1 -0.20638,0 l -0.037,0.187854 c 0.33602,0.06085 0.55298,0.103188 0.82021,0.15875 l 0.37306,0.07937 0.0423,-0.185208 a 0.36777083,0.36777083 0 0 1 -0.16139,-0.08996 0.73554167,0.73554167 0 0 1 -0.11642,-0.373063 v -0.02117 c -0.0503,-0.264583 -0.09,-0.46302 -0.13229,-0.661457 -0.0238,-0.124354 -0.0503,-0.240771 -0.0741,-0.359834 l -0.082,-0.362479 c -0.0185,-0.08467 -0.037,-0.171979 -0.0582,-0.264583 -0.0212,-0.0926 -0.0291,-0.121708 -0.0423,-0.185208 l -0.0159,-0.06615 -0.22225,-0.03969 c -0.0476,0.06615 -0.09,0.132292 -0.13494,0.193146 l -0.17463,0.264583 -0.21166,0.314855 -0.20902,0.312208 c -0.11113,0.169333 -0.23019,0.351896 -0.37042,0.571499 -0.14023,0.219604 -0.30692,0.3175 -0.46037,0.304271 z m 1.05833,-0.84402 0.20109,-0.298979 c 0.0344,0.137583 0.0582,0.243416 0.0847,0.346604 0.0265,0.103187 0.0556,0.235479 0.09,0.394228 l -0.59532,-0.126999 z" class="cls-14" style="fill:#fff;stroke-width:.26458332"/></g></svg>